<?xml version="1.0" encoding="utf-8"?>
<!-- Generator: Adobe Illustrator 23.0.3, SVG Export Plug-In . SVG Version: 6.00 Build 0)  -->
<svg version="1.1" id="Layer_1" xmlns="http://www.w3.org/2000/svg" xmlns:xlink="http://www.w3.org/1999/xlink" x="0px" y="0px"
	 viewBox="0 0 200 200" style="enable-background:new 0 0 200 200;" xml:space="preserve">
<style type="text/css">
	.st0{fill:none;}
	.st1{fill:#FFFFFF;}
</style>
<g>
	<path class="st0" d="M170.27,171.41c-3.17,0.8-6.17,1.97-8.87,3.87c-4.36,3.06-7.25,7.12-8.47,12.33
		c-0.13,0.55-0.27,1.09-0.36,1.64c-0.12,0.77-0.48,1.07-1.31,1.06c-4.34-0.04-8.69-0.02-13.03-0.02c-13.06,0-26.13,0-39.19,0
		c-17.38,0-34.75,0-52.13,0c-1.23,0-1.3-0.08-1.45-1.24c-0.4-3.27-1.4-6.39-3.21-9.11c-2.08-3.13-4.96-5.48-8.5-6.83
		c-1.94-0.74-3.99-1.19-6.01-1.71c-0.66-0.17-1.08-0.41-1.18-0.99c0.1,0.58,0.53,0.82,1.18,0.99c2.02,0.52,4.07,0.97,6.01,1.71
		c3.54,1.35,6.42,3.7,8.5,6.83c1.81,2.73,2.81,5.84,3.21,9.11c0.14,1.17,0.22,1.24,1.45,1.24c17.38,0,34.75,0,52.13,0
		c13.06,0,26.13,0,39.19,0c4.34,0,8.69-0.02,13.03,0.02c0.83,0.01,1.19-0.29,1.31-1.06c0.09-0.55,0.23-1.1,0.36-1.64
		c1.22-5.21,4.11-9.27,8.47-12.33C164.1,173.38,167.11,172.2,170.27,171.41c0.74-0.19,1.13-0.51,1.13-1.17
		C171.4,170.9,171.01,171.22,170.27,171.41z"/>
	<path class="st0" d="M171.37,169.41C171.37,169.41,171.37,169.41,171.37,169.41c0,0.13-0.01,0.27-0.01,0.4
		C171.36,169.67,171.37,169.54,171.37,169.41z"/>
	<path class="st0" d="M126.07,89.27c0.45,1.07,0.32,1.32-0.8,1.33c-0.14,0-0.28,0-0.4,0c0.13,0,0.26,0,0.4,0
		C126.38,90.59,126.51,90.34,126.07,89.27c-0.76-1.82-1.48-3.66-2.25-5.48c-0.14-0.32-0.38-0.6-0.58-0.89c0,0,0,0,0,0
		c0.2,0.3,0.45,0.57,0.58,0.89C124.58,85.61,125.3,87.45,126.07,89.27z"/>
	<path class="st1" d="M153.88,44.23c0.88-1.04,1.68-2.05,3.05-2.69c2.5-1.17,4.83-2.71,7.19-4.17c0.65-0.4,1.35-0.95,1.7-1.6
		c2.35-4.36,4.61-8.78,6.92-13.16c2.53-4.8,5.09-9.59,7.63-14.38c0.11-0.21,0.28-0.46,0.25-0.65c-0.08-0.39-0.18-0.9-0.46-1.1
		c-0.27-0.19-0.87-0.19-1.15-0.01c-0.59,0.37-1.04,0.95-1.59,1.39c-4.75,3.84-9.5,7.67-14.26,11.49c-2.9,2.33-5.82,4.62-8.71,6.97
		c-0.44,0.36-0.86,0.87-1.03,1.39c-0.8,2.41-1.52,4.84-2.23,7.28c-0.33,1.13-0.64,2.25-1.45,3.19c-1.87,2.16-3.7,4.36-5.54,6.54
		c-0.58,0.68-1.14,1.38-1.77,2.15c-1.89-2.04-3.64-3.95-5.4-5.84c-4.09-4.41-8.18-8.81-12.27-13.21c-2.7-2.91-5.4-5.83-8.11-8.73
		c-3.3-3.54-6.61-7.06-9.91-10.61c-1.38-1.49-6.2-6.81-7.65-8.41c0-0.04-0.02-0.06-0.05-0.06c-0.04,0-0.05,0.02-0.06,0.06
		c-1.49,1.64-6.36,7-7.77,8.55c-3.18,3.5-6.35,7.01-9.53,10.51c-0.29,0.32-0.67,0.54-0.96,0.86c-0.87,0.96-1.69,1.99-2.59,2.93
		c-1.32,1.38-2.74,2.68-4.05,4.07c-2.88,3.08-5.72,6.2-8.58,9.29c-1.8,1.95-3.62,3.89-5.43,5.83c-1.12,1.2-2.24,2.4-3.37,3.6
		c-2.37-2.83-4.65-5.56-6.94-8.29c-0.11-0.13-0.19-0.3-0.24-0.47c-0.9-3.03-1.78-6.06-2.7-9.08c-0.11-0.38-0.35-0.75-0.63-1.03
		c-0.54-0.54-1.13-1.04-1.73-1.52c-4.42-3.53-8.87-7.03-13.27-10.6c-3.32-2.69-6.59-5.45-9.87-8.19c-0.52-0.43-0.94-0.49-1.47-0.01
		c-0.42,0.38-0.63,0.71-0.32,1.29c1.57,2.94,3.11,5.9,4.66,8.85c2.93,5.6,5.84,11.2,8.79,16.79c0.74,1.4,1.3,2.95,2.77,3.81
		c1.53,0.9,3.15,1.66,4.59,2.68c1.77,1.25,4.01,1.7,5.39,3.68c1.67,2.38,3.69,4.52,5.59,6.73c0.41,0.47,0.37,0.79-0.02,1.2
		c-0.61,0.64-1.2,1.3-1.81,1.94c-2.11,2.27-4.24,4.53-6.33,6.81c-2.44,2.67-4.83,5.38-7.27,8.05c-1.27,1.39-2.62,2.73-3.92,4.1
		c-3.31,3.49-6.6,7-9.91,10.49c-0.54,0.57-0.81,1.19-0.81,1.98c0.01,2.16-0.03,4.31-0.02,6.47c0.03,7.24,0.09,14.48,0.12,21.72
		c0.02,3.69-0.02,7.39-0.02,11.08c0,16.64,0.01,33.28,0.02,49.92c0,0.55-0.17,1.26,0.1,1.62c0.22,0.29,0.99,0.16,1.51,0.21
		c0.03,0,0.06,0,0.09,0.01c2.47,0.66,4.96,1.26,7.41,2c0.83,0.25,1.55,0.86,2.36,1.33c-0.81,1.01-1.46,1.85-2.14,2.66
		c-3.51,4.22-7.02,8.43-10.53,12.64c-0.75,0.91-0.83,1.71-0.03,2.51c0.95,0.96,2,1.84,3.08,2.64c0.75,0.56,1.82,0.24,2.45-0.52
		c1.44-1.75,2.89-3.5,4.33-5.25c2.36-2.87,4.71-5.75,7.07-8.62c0.29-0.35,0.59-0.7,0.94-1.11c0.25,0.33,0.41,0.54,0.55,0.75
		c2.07,3.14,3.08,6.62,3.12,10.36c0.01,0.85,0.29,1.21,1.12,1.14c0.21-0.02,0.41,0,0.62,0c13.24,0,26.48,0,39.72,0
		c12.3,0,24.59,0.01,36.89,0.02c8.42,0,16.85,0,25.27,0c3.31,0,6.62-0.03,9.93,0c0.73,0.01,1.09-0.14,1.03-0.97
		c-0.05-0.73,0.02-1.48,0.13-2.2c0.55-3.56,1.76-6.84,4.01-9.71c0.49-0.62,0.75-0.54,1.2,0c1.8,2.22,3.62,4.42,5.45,6.62
		c2.39,2.88,4.79,5.75,7.18,8.64c1.17,1.41,1.86,1.49,3.29,0.32c0.8-0.65,1.59-1.31,2.37-1.99c0.78-0.69,0.81-1.73,0.11-2.51
		c-0.55-0.61-1.11-1.22-1.64-1.86c-3.51-4.25-7.02-8.51-10.53-12.76c-0.43-0.53-0.84-1.07-1.31-1.66c0.29-0.17,0.41-0.25,0.54-0.31
		c2.74-1.24,5.63-1.91,8.63-2.03c0.65-0.03,0.92-0.26,0.86-0.9c-0.03-0.29,0-0.59,0-0.89c-0.01-10.14-0.02-20.27-0.02-30.41
		c0-13.98,0-27.96,0-41.94c0-5.82,0.02-11.64-0.02-17.47c0-0.48-0.17-1.09-0.49-1.43c-1.83-2.04-3.74-4.01-5.61-6.01
		c-1.93-2.07-3.86-4.15-5.78-6.22c-2.74-2.97-5.48-5.94-8.22-8.9c-2.79-3.01-5.56-6.03-8.4-8.98c-0.66-0.68-0.5-1.11-0.01-1.7
		C149.99,48.89,151.92,46.55,153.88,44.23z M152.54,35.97c0.44-1.62,0.99-3.21,1.4-4.84c0.49-1.94,1.35-3.49,3.02-4.77
		c4.5-3.44,8.84-7.08,13.26-10.62c0.54-0.43,1.14-0.78,1.71-1.17c0.07,0.08,0.14,0.15,0.21,0.23c-0.1,0.2-0.18,0.42-0.32,0.59
		c-2.41,2.9-4.84,5.79-7.25,8.69c-1.69,2.03-3.37,4.07-5.06,6.11c-0.17,0.2-0.27,0.46-0.44,0.67c-0.26,0.33-0.46,0.73,0,0.95
		c0.34,0.16,0.93,0.23,1.18,0.04c0.55-0.41,0.99-1,1.44-1.55c3.91-4.72,7.82-9.44,11.74-14.16c0.14-0.16,0.33-0.28,0.49-0.42
		c0.07,0.04,0.15,0.07,0.22,0.11c-0.06,0.28-0.06,0.58-0.19,0.82c-1.31,2.51-2.65,5.01-3.95,7.52c-1.72,3.3-3.37,6.63-5.15,9.89
		c-0.43,0.79-1.15,1.53-1.91,2.02c-1.93,1.24-3.97,2.32-5.95,3.49c-0.61,0.36-0.99,0.3-1.51-0.24c-0.85-0.89-1.87-1.62-2.76-2.47
		C152.55,36.69,152.47,36.24,152.54,35.97z M170.27,171.41c-3.17,0.8-6.17,1.97-8.87,3.87c-4.36,3.06-7.25,7.12-8.47,12.33
		c-0.13,0.55-0.27,1.09-0.36,1.64c-0.12,0.77-0.48,1.07-1.31,1.06c-4.34-0.04-8.69-0.02-13.03-0.02c-13.06,0-26.13,0-39.19,0
		c-17.38,0-34.75,0-52.13,0c-1.23,0-1.3-0.08-1.45-1.24c-0.4-3.27-1.4-6.39-3.21-9.11c-2.08-3.13-4.96-5.48-8.5-6.83
		c-1.94-0.74-3.99-1.19-6.01-1.71c-0.66-0.17-1.08-0.41-1.18-0.99c-0.01-0.08-0.02-0.17-0.02-0.27c0-0.05,0-0.11,0.01-0.16
		c0.01-0.18,0.02-0.35,0.02-0.53c0-0.13,0-0.27,0-0.4c0-0.13,0-0.27-0.01-0.4c-0.01-0.27-0.01-0.53-0.01-0.8c0-6.68,0-13.36,0-20.04
		c0-5.01,0-10.02,0-15.03c0-5.01,0-10.02-0.01-15.03c-0.01-10.02-0.02-20.04-0.05-30.06c-0.01-1.99,0.65-3.39,1.93-4.75
		c5.36-5.73,10.69-11.49,16.03-17.24c4.3-4.62,8.62-9.22,12.92-13.85c4.82-5.18,9.6-10.39,14.43-15.56
		c3.35-3.58,6.77-7.08,10.12-10.66c2.35-2.52,4.61-5.11,6.94-7.65c2.19-2.39,4.42-4.75,6.63-7.13c0.9-0.97,1.8-1.95,2.68-2.94
		c0.68-0.77,0.88-0.74,1.57,0c1.84,1.99,3.72,3.95,5.57,5.93c3.32,3.56,6.61,7.14,9.93,10.7c2.09,2.24,4.19,4.47,6.28,6.72
		c3.39,3.65,6.76,7.33,10.17,10.97c2.84,3.03,5.76,6,8.59,9.04c2.51,2.69,4.95,5.46,7.44,8.17c2.01,2.2,4.04,4.38,6.07,6.56
		c3.23,3.48,6.47,6.95,9.71,10.42c2.29,2.46,4.57,4.93,6.88,7.38c0.66,0.7,1,1.41,1,2.42c-0.02,20.79-0.02,41.58-0.02,62.37
		c0,6.93,0,13.86,0,20.79c0,0,0,0,0,0c0,0.13-0.01,0.27-0.01,0.4c0,0.04,0,0.09,0.01,0.13c0.02,0.11,0.02,0.21,0.02,0.3
		C171.4,170.9,171.01,171.22,170.27,171.41z M44.4,39.57c-0.24,0.18-0.75,0.26-0.99,0.13c-2.43-1.34-4.84-2.71-7.23-4.12
		c-0.32-0.19-0.54-0.62-0.72-0.98c-3.06-5.89-6.11-11.79-9.15-17.69c-0.17-0.33-0.27-0.7-0.4-1.06c0.09-0.05,0.18-0.11,0.27-0.16
		c0.69,0.77,1.41,1.52,2.07,2.31c1.73,2.08,3.45,4.17,5.16,6.27c1.32,1.62,2.63,3.26,3.95,4.88c0.63,0.77,1.27,1.53,1.91,2.3
		c0.06,0.07,0.12,0.13,0.18,0.19c0.47,0.52,1.01,0.64,1.54,0.14c0.52-0.49,0.08-0.94-0.21-1.31c-0.94-1.17-1.92-2.31-2.88-3.47
		c-1.53-1.82-3.07-3.64-4.58-5.48c-1.74-2.12-3.47-4.25-5.19-6.38c-0.25-0.31-0.41-0.67-0.61-1.01c0.05-0.04,0.09-0.07,0.14-0.11
		c2.79,2.24,5.58,4.5,8.38,6.73c2.1,1.67,4.21,3.32,6.31,4.99c0.74,0.59,1.61,1.08,2.15,1.82c0.59,0.8,0.95,1.79,1.29,2.75
		c0.58,1.63,1.06,3.3,1.57,4.96c0.41,1.33,0.29,1.61-0.81,2.48C45.81,38.33,45.15,39.01,44.4,39.57z M46.5,41.68
		c-0.19-0.23-0.42-0.44-0.52-0.71c-0.07-0.2-0.06-0.56,0.07-0.69c0.49-0.5,1.03-0.96,1.58-1.4c0.43-0.34,0.78-0.3,1.18,0.2
		c2.06,2.52,4.16,5.02,6.28,7.5c0.34,0.4,0.39,0.7,0.06,1.06c-0.62,0.7-1.26,1.39-1.93,2.12C50.87,46.92,48.68,44.3,46.5,41.68z
		 M36.45,183.24c-2.62,3.11-5.24,6.21-7.84,9.33c-1.37,1.65-2.71,3.33-4.06,4.99c-0.15,0.18-0.31,0.35-0.52,0.59
		c-0.62-0.48-1.17-0.88-1.68-1.32c-0.77-0.68-0.81-0.97-0.15-1.78c1.21-1.48,2.47-2.92,3.68-4.4c1.7-2.07,3.36-4.18,5.06-6.25
		c1.03-1.25,2.11-2.45,3.16-3.68c0.27-0.32,0.53-0.44,0.88-0.09c0.44,0.43,0.9,0.85,1.38,1.24
		C36.89,182.32,36.87,182.75,36.45,183.24z M170.87,186.62c1.67,2.01,3.38,3.99,5.07,5.98c0.7,0.83,1.41,1.66,2.09,2.52
		c0.39,0.49,0.48,0.99-0.1,1.46c-0.61,0.49-1.19,1.04-1.87,1.64c-1-1.21-1.94-2.34-2.87-3.47c-3.18-3.86-6.35-7.72-9.53-11.58
		c-0.06-0.07-0.11-0.14-0.16-0.21c-0.36-0.51-1.13-1.32-1.01-1.49c0.52-0.75,1.28-1.35,2.03-1.91c0.14-0.1,0.72,0.18,0.93,0.43
		C167.27,182.18,169.05,184.42,170.87,186.62z M146.91,49.79c-0.29,0.36-0.66,0.65-1.05,1.02c-0.77-0.83-1.46-1.58-2.24-2.43
		c1.62-1.97,3.19-3.88,4.77-5.78c0.96-1.15,1.96-2.27,2.88-3.46c0.41-0.53,0.76-0.59,1.24-0.19c0.5,0.41,1.03,0.8,1.46,1.27
		c0.49,0.53,0.03,0.99-0.3,1.38c-1.05,1.27-2.14,2.51-3.19,3.79C149.27,46.85,148.11,48.33,146.91,49.79z"/>
	<path d="M79.72,73.4c0-1.46,0.01-2.93,0.01-4.39C79.74,70.48,79.72,71.94,79.72,73.4c0,1.8,0.03,3.61-0.01,5.41
		C79.75,77.01,79.72,75.2,79.72,73.4z"/>
	<path d="M149.65,136.72c0.05-0.06,0.09-0.11,0.13-0.17h0C149.74,136.61,149.69,136.67,149.65,136.72z"/>
	<path d="M142.06,136.49c0.03,0.04,0.07,0.08,0.1,0.12C142.13,136.56,142.1,136.53,142.06,136.49L142.06,136.49z"/>
	<path d="M126.47,136.8c0.06-0.1,0.12-0.2,0.19-0.3l0,0C126.6,136.6,126.54,136.7,126.47,136.8z"/>
	<path d="M138.2,153.74c0.04,0.05,0.09,0.1,0.13,0.15C138.29,153.84,138.24,153.79,138.2,153.74L138.2,153.74z"/>
	<path d="M130.56,153.74c0.02,0.03,0.05,0.06,0.07,0.1C130.61,153.81,130.58,153.78,130.56,153.74L130.56,153.74z"/>
	<path d="M130.43,142.37c0.05-0.05,0.09-0.1,0.13-0.16c0.03,0.06,0.07,0.11,0.1,0.17c-0.04-0.06-0.07-0.11-0.1-0.17
		C130.52,142.26,130.47,142.31,130.43,142.37z"/>
	<path d="M134.36,142.14c0.04,0.06,0.08,0.11,0.12,0.16C134.44,142.25,134.4,142.2,134.36,142.14L134.36,142.14z"/>
	<path d="M145.75,130.86c0.04-0.05,0.08-0.1,0.11-0.15c0,0,0,0,0,0C145.83,130.76,145.79,130.81,145.75,130.86z"/>
	<path d="M130.37,125.07c0.06-0.05,0.11-0.1,0.16-0.16l0,0C130.48,124.96,130.42,125.01,130.37,125.07z"/>
	<path d="M52.51,113.57c0.03-0.03,0.05-0.05,0.07-0.08v0C52.56,113.52,52.54,113.54,52.51,113.57z"/>
	<path d="M56.17,113.79c0.08-0.11,0.17-0.21,0.25-0.33l0,0C56.35,113.58,56.26,113.68,56.17,113.79z"/>
	<path d="M153.6,113.49c0.03,0.05,0.07,0.09,0.11,0.14C153.68,113.59,153.64,113.54,153.6,113.49L153.6,113.49z"/>
	<path class="st1" d="M72.45,172.34c-1.4,0-2.33-0.79-2.85-2.02c-0.81-1.9,0.26-4.22,2.38-4.03c0.38,0.03,0.73,0.34,1.09,0.53
		c-0.32,0.22-0.61,0.55-0.97,0.64c-1.15,0.31-1.8,1.41-1.29,2.34c0.51,0.95,1.38,1.13,2.35,1.06c0.82-0.06,1.71-0.69,1.79-1.48
		c0.24-2.19,0.38-4.39,0.54-6.59c0.03-0.46-0.16-0.78-0.71-0.79c-0.74-0.01-1.47-0.11-2.21-0.08c-2.86,0.11-4.94,1.49-6.15,4.05
		c-1.15,2.44-0.86,4.79,0.7,7.02c2.8,4.01,9.47,3.53,12.29-0.32c1.49-2.03,1.71-4.3,1.71-6.64c0.02-22.79,0.01-45.58,0.01-68.37
		c0-0.24-0.07-0.52,0.03-0.7c0.16-0.27,0.43-0.58,0.7-0.63c0.18-0.04,0.5,0.3,0.66,0.53c0.11,0.17,0.07,0.45,0.07,0.69
		c0,22.58,0.01,45.16,0,67.74c0,0.71-0.05,1.41-0.1,2.12c-0.14,2.45-0.8,4.7-2.46,6.58c-0.46,0.52-0.91,1.06-1.41,1.65
		c0.26,0.03,0.61,0.14,0.94,0.1c2.19-0.3,4.04-1.21,5.45-2.97c1.63-2.05,1.93-4.47,1.93-6.93c0.02-23.56,0.01-47.11,0.02-70.67
		c0-0.46,0.23-0.93,0.36-1.4c0.97,0.28,1,0.86,1,1.48c0,23.82,0.01,47.65-0.02,71.47c0,3.24-1.02,6.15-3.62,8.32
		c-0.12,0.1-0.19,0.28-0.36,0.54c0.34,0.07,0.59,0.2,0.81,0.15c0.89-0.19,1.83-0.3,2.65-0.67c3.38-1.55,4.85-4.43,4.86-7.97
		c0.05-21.96,0.02-43.92,0.02-65.88c0-1.8-0.04-3.61,0.01-5.41c0.04-1.38,0.54-2.53,1.68-3.45c2.08-1.7,4.4-2,6.91-1.41
		c2.96,0.7,4.44,2.6,4.44,5.6c0,22.76,0,45.52,0.01,68.28c0,1.27,0.04,2.55,0.23,3.79c0.59,3.87,3.47,6.61,7.34,7.05
		c0.32,0.04,0.66-0.06,1.17-0.11c-0.26-0.24-0.35-0.34-0.46-0.42c-1.91-1.43-3.02-3.42-3.49-5.68c-0.32-1.53-0.31-3.15-0.33-4.73
		c-0.07-4.64-0.11-9.27-0.12-13.91c-0.01-18.3-0.01-36.59,0-54.89c0-0.52,0.01-1.06,0.15-1.56c0.07-0.25,0.39-0.5,0.65-0.58
		c0.12-0.03,0.44,0.33,0.53,0.56c0.12,0.32,0.14,0.69,0.14,1.04c0,23.08,0,46.17,0.01,69.25c0,1.35,0.09,2.71,0.22,4.06
		c0.31,3.11,2.77,5.94,5.78,6.66c0.73,0.17,1.5,0.17,2.25,0.25c0.02-0.09,0.03-0.18,0.05-0.26c-0.42-0.43-0.85-0.85-1.27-1.28
		c-2.23-2.35-2.78-5.33-2.79-8.36c-0.05-22.64-0.03-45.28-0.02-67.92c0-0.4,0.11-0.82,0.28-1.18c0.1-0.21,0.46-0.45,0.66-0.42
		c0.22,0.04,0.48,0.35,0.56,0.59c0.11,0.32,0.07,0.7,0.07,1.05c0,22.94-0.01,45.87,0.01,68.81c0,3.9,1.67,7.55,6.31,8.79
		c4.08,1.09,8.87-1.49,8.97-6.5c0.06-2.94-1.25-5.02-3.75-6.42c-1.71-0.95-3.57-0.56-5.38-0.54c-0.17,0-0.5,0.49-0.49,0.74
		c0.02,1.8,0.07,3.6,0.18,5.39c0.09,1.43,1.02,2.46,2.28,2.7c1.02,0.19,2.03-0.5,2.23-1.53c0.2-1.04-0.24-1.59-1.42-1.86
		c-0.34-0.08-0.64-0.33-0.98-0.51c0.39-0.71,0.83-1.03,1.51-0.87c1.28,0.3,2.21,1.21,2.34,2.47c0.13,1.25-0.3,2.34-1.37,3.07
		c-2.14,1.45-5.27,0.17-5.78-2.4c-0.2-1-0.26-2.05-0.26-3.08c-0.01-26.99-0.01-53.97-0.01-80.96c0-9.67,0-19.33,0-29
		c0-0.6-0.1-1.19-0.15-1.79c-0.11,0.01-0.21,0.01-0.32,0.02c-0.18,1.57-0.4,3.13-0.51,4.7c-0.1,1.51-0.48,2.32-1.73,2.65
		c-1.69,0.44-3.42,0.82-5.15,1.05c-3.02,0.4-5.82,1.26-8.12,3.35c-0.36,0.32-0.65,0.72-0.97,1.08c0.06,0.06,0.12,0.12,0.18,0.17
		c1.17-0.35,2.33-0.87,3.53-1.01c3.68-0.45,7.38-0.78,11.07-1.12c0.92-0.08,1.17,0.22,1.17,1.22c0,4.23-0.01,8.45,0.01,12.68
		c0.01,1.06-0.31,1.96-0.96,2.78c-1.49,1.85-3.39,3.18-5.38,4.41c-0.68,0.42-1.37,0.83-2.1,1.28c2.26,1.96,4.43,3.81,6.56,5.71
		c0.3,0.26,1.49,1.31,1.67,1.71c-0.43,0.06-2.02-0.28-2.42-0.37c-1.55-0.36-3.06-0.87-4.62-1.2c-3.17-0.68-6.13-1.92-9.05-3.26
		c-1.07-0.5-2.06-1.28-2.92-2.11c-0.83-0.8-1.43-1.82-2.18-2.8c-0.11,0.16-0.25,0.34-0.35,0.53c-0.72,1.39-1.63,2.65-3,3.42
		c-1.77,0.99-3.56,2.02-5.46,2.67c-3.26,1.11-6.61,1.97-9.94,2.87c-0.33,0.09-2.6,0.39-2.99,0.26c0.16-0.34,2.05-1.4,2.3-1.62
		c1.94-1.73,3.91-3.41,5.87-5.11c0.8-0.69,0.79-0.95-0.17-1.45c-2.17-1.13-4.07-2.61-5.76-4.36c-1-1.03-1.57-2.22-1.54-3.73
		c0.06-4.08,0.02-8.16,0.02-12.24c0-1.06,0.34-1.35,1.41-1.28c1.91,0.13,3.84,0.15,5.73,0.4c2.35,0.31,4.68,0.82,7.01,1.25
		c0.49,0.09,0.98,0.25,1.47,0.37c0.05-0.08,0.09-0.15,0.14-0.23c-0.13-0.21-0.21-0.5-0.39-0.62c-1.4-0.91-2.72-2.1-4.27-2.6
		c-2.59-0.82-5.31-1.27-8-1.73c-1.9-0.32-2.9-1.07-3.08-2.72c-0.05-0.5-0.09-0.99-0.13-1.49c-0.17-2.08-0.32-4.17-0.51-6.25
		c-0.03-0.29-0.27-0.56-0.42-0.84c-0.14,0.28-0.32,0.54-0.41,0.83c-0.07,0.22-0.02,0.47-0.02,0.71c0,14.04,0.01,28.08,0,42.12
		c-0.03,24.44-0.08,48.88-0.15,73.31c0,0.85-0.23,1.77-0.61,2.54C75.33,171.75,74.01,172.35,72.45,172.34z"/>
	<path class="st1" d="M146.72,177.55c-24.03,0.01-48.06,0.01-72.09,0.01c-7.6,0-15.19-0.01-22.79,0.01c-2.25,0-4.02,0.85-4.97,3.02
		c-0.92,2.11-0.41,6.06,2.81,6.91c2.52,0.67,4.85-1.21,4.58-3.74c-0.13-1.2-1-2.05-2.28-2.22c-0.9-0.12-1.86,0.43-2.15,1.34
		c-0.1,0.32-0.09,0.82,0.1,1.05c0.21,0.26,0.68,0.3,1.04,0.44c0.27,0.1,0.75,0.19,0.76,0.3c0.02,0.34-0.05,0.9-0.26,0.99
		c-0.41,0.19-1,0.27-1.41,0.12c-1.37-0.51-1.96-1.96-1.48-3.36c0.49-1.42,1.65-2.29,3.11-2.34c1.43-0.04,3.16,1.06,3.68,2.35
		c0.83,2.04,0.17,4.26-1.63,5.59c-0.21,0.15-0.38,0.35-0.74,0.69h92.27c0.04-0.11,0.04-0.11,0.08-0.22
		c-0.24-0.18-0.49-0.34-0.71-0.54c-1.29-1.18-2.07-2.6-1.77-4.39c0.28-1.7,1.33-2.77,2.95-3.32c1.33-0.45,2.81,0.04,3.68,1.24
		c0.81,1.13,0.85,2.45,0.1,3.46c-0.59,0.8-1.77,1.25-2.39,0.83c-0.26-0.18-0.51-0.62-0.47-0.9c0.03-0.21,0.53-0.47,0.83-0.49
		c0.77-0.05,1.13-0.34,1.15-1.12c0.02-0.81-0.47-1.26-1.14-1.52c-1.79-0.72-3.55,0.71-3.36,2.7c0.14,1.51,1.19,2.74,2.63,3.11
		c1.43,0.36,3.48-0.33,4.27-1.54c1.17-1.78,1.43-3.73,0.44-5.63C150.6,178.46,148.91,177.54,146.72,177.55z"/>
	<path class="st1" d="M123.8,91.95c-0.66-0.01-0.86,0.26-0.85,0.91c0.03,2.19,0.01,4.37,0.01,6.56c0,0.46,0,0.92,0,1.67
		c0.41-0.33,0.65-0.46,0.8-0.65c1-1.35,1.99-2.72,2.97-4.08c0.32-0.44,0.74-0.85,1.21-0.41c0.17,0.16,0.04,0.89-0.18,1.21
		c-1.39,2.01-2.86,3.98-4.28,5.96c-0.2,0.28-0.48,0.61-0.48,0.92c-0.04,2.06-0.02,4.12-0.02,6.19c0.9,0.23,1.05-0.52,1.35-0.93
		c1.79-2.45,3.54-4.94,5.32-7.41c0.27-0.38,0.6-0.83,1.15-0.36c0.49,0.42,0.24,0.83-0.06,1.24c-2.47,3.39-4.93,6.78-7.38,10.18
		c-0.17,0.23-0.35,0.52-0.36,0.78c-0.03,2.09-0.02,4.18-0.02,6.57c0.43-0.38,0.71-0.56,0.9-0.81c0.27-0.34,0.48-0.74,0.73-1.1
		c2.34-3.22,4.67-6.44,7.02-9.66c0.17-0.23,0.36-0.5,0.6-0.62c0.25-0.12,0.74-0.2,0.83-0.08c0.16,0.22,0.16,0.61,0.12,0.91
		c-0.03,0.21-0.24,0.4-0.38,0.59c-3.16,4.34-6.32,8.68-9.47,13.03c-0.18,0.25-0.34,0.58-0.35,0.88c-0.03,1.95-0.02,3.9-0.01,5.85
		c0,0.13,0.09,0.25,0.14,0.38c0.13,0.11,0.26,0.21,0.39,0.32c0.16-0.32,0.27-0.68,0.47-0.96c3.59-4.97,7.18-9.94,10.78-14.91
		c4-5.52,8-11.04,12.04-16.53c0.52-0.71,0.45-1.12-0.21-1.57c-3.19-2.21-6.67-3.75-10.56-3.92
		C131.96,91.89,127.88,91.99,123.8,91.95z M132.53,100.49c-0.11,0.14-0.33,0.2-0.58,0.34c-0.24-0.17-0.55-0.29-0.65-0.51
		c-0.11-0.25-0.16-0.67-0.03-0.87c0.77-1.15,1.59-2.27,2.41-3.38c0.33-0.46,0.78-0.65,1.3-0.32c0.54,0.35,0.36,0.84,0.09,1.24
		C134.25,98.17,133.4,99.33,132.53,100.49z M136.78,101.52c0.06-0.08,0.22-0.18,0.4-0.22c0.15-0.04,0.3-0.06,0.34-0.01
		c0.34,0.06,0.64,0.36,0.69,0.69c0.06,0.35-0.21,0.64-0.49,0.98c-0.81,1.15-1.64,2.29-2.46,3.44c-0.02,0.02-0.04,0.07-0.08,0.13
		c-0.08,0.12-0.16,0.24-0.26,0.26c-0.04,0.03-0.54,0.38-0.96,0.16c-0.08-0.01-0.14-0.03-0.2-0.07c-0.22-0.17-0.31-0.87-0.14-1.12
		c0,0,0.04-0.06,0.13-0.18c0.83-1.2,1.71-2.37,2.61-3.52C136.5,101.88,136.63,101.7,136.78,101.52z"/>
	<path class="st1" d="M57.9,106.03c5.22,7.19,10.44,14.37,15.67,21.56c0.49,0.67,1.02,1.32,1.53,1.98c0.09-0.05,0.18-0.09,0.27-0.14
		c0.04-0.13,0.1-0.27,0.1-0.4c0.01-1.89,0.03-3.78-0.01-5.67c-0.01-0.32-0.21-0.67-0.41-0.94c-2.52-3.49-5.05-6.98-7.57-10.46
		c-0.71-0.98-1.44-1.95-2.08-2.97c-0.14-0.23,0.06-0.67,0.11-1.01c0.31,0.07,0.7,0.05,0.91,0.23c0.35,0.3,0.58,0.73,0.86,1.11
		c2.48,3.45,4.96,6.9,7.45,10.34c0.11,0.15,0.31,0.22,0.47,0.33c0.1-0.22,0.27-0.44,0.27-0.67c0.02-1.68,0.05-3.37-0.01-5.05
		c-0.02-0.53-0.17-1.13-0.47-1.55c-2.15-3.03-4.35-6.03-6.53-9.04c-0.31-0.43-0.66-0.85-0.87-1.33c-0.1-0.21,0.01-0.62,0.17-0.82
		c0.1-0.12,0.55-0.1,0.72,0.03c0.32,0.24,0.59,0.57,0.83,0.9c1.76,2.44,3.51,4.88,5.28,7.32c0.16,0.23,0.42,0.38,0.81,0.72
		c0.05-0.54,0.09-0.82,0.09-1.11c0.01-1.54,0.05-3.07-0.02-4.61c-0.03-0.58-0.23-1.23-0.55-1.71c-1.39-2.05-2.86-4.05-4.29-6.07
		c-0.28-0.4-0.54-0.83,0.06-1.19c0.54-0.33,0.81,0.06,1.07,0.43c0.95,1.32,1.89,2.64,2.85,3.94c0.17,0.23,0.41,0.41,0.79,0.78
		c0.05-0.53,0.09-0.81,0.09-1.09c0-2.27-0.03-4.55,0.01-6.82c0.02-0.88-0.31-1.11-1.14-1.1c-2.92,0.04-5.85-0.02-8.77,0.02
		c-4.98,0.07-9.5,1.59-13.61,4.39c-0.55,0.37-0.6,0.7-0.22,1.21C53.82,100.39,55.86,103.21,57.9,106.03z M63.27,96.41
		c0.08-0.24,0.27-0.63,0.45-0.65c0.19-0.17,0.86-0.02,1.03,0.2c0.9,1.12,1.77,2.28,2.53,3.5c0.52,0.74-0.54,1.81-1.36,0.86
		c-0.81-0.97-1.54-2.01-2.28-3.03C63.48,97.06,63.2,96.65,63.27,96.41z M60.65,101.45c0.13-0.17,0.82-0.18,0.96-0.01
		c1.15,1.44,2.24,2.94,3.33,4.43c0.08,0.11,0.07,0.28,0.14,0.57c-0.11,0.14-0.25,0.5-0.44,0.53c-0.34,0.05-0.86,0.03-1.03-0.18
		c-1.09-1.39-2.13-2.81-3.11-4.28C60.34,102.28,60.45,101.7,60.65,101.45z"/>
	<path class="st1" d="M108.44,175.74c0.03-0.1,0.06-0.19,0.09-0.29c-0.45-0.4-0.94-0.77-1.34-1.21c-2.11-2.34-2.86-5.19-2.86-8.24
		c-0.01-22.76-0.01-45.52-0.01-68.28c0-0.18,0.07-0.4-0.01-0.52c-0.17-0.24-0.41-0.6-0.64-0.62c-1-0.07-2.01-0.02-3.01-0.04
		c-0.55-0.01-0.73,0.26-0.71,0.77c0.02,0.32,0,0.65,0,0.98c0,22.55,0,45.1,0,67.66c0,0.74-0.01,1.49,0.12,2.2
		c0.63,3.45,2.17,6.07,5.66,7.14C106.61,175.55,107.54,175.59,108.44,175.74z"/>
	<path class="st1" d="M104.46,61.09c1.86-1.89,3.65-3.85,5.59-5.65c3.19-2.97,6.73-5.36,11.14-6.17c0.14-0.03,0.36-0.52,0.29-0.68
		c-1.03-2.25-2.05-4.51-3.19-6.7c-1.62-3.09-3.51-6.04-6.1-8.41c-2.6-2.39-5.38-4.59-8.08-6.86c-0.12-0.1-0.29-0.12-0.47-0.19v35.11
		c0.11,0.05,0.12,0.05,0.23,0.1C104.06,61.45,104.27,61.28,104.46,61.09z"/>
	<path class="st1" d="M77.45,49.35c1.51,0.38,3.05,0.82,4.44,1.5c3.78,1.84,6.93,4.54,9.84,7.56c1.01,1.05,2.14,1.97,3.21,2.93
		c0-11.51,0-23.14,0-34.97c-1.14,0.94-2.1,1.75-3.09,2.54c-4.09,3.25-7.84,6.83-10.52,11.37c-1.56,2.64-2.91,5.4-4.34,8.11
		C76.75,48.85,76.7,49.16,77.45,49.35z"/>
	<path class="st1" d="M92.17,173.16c-0.6,0.85-1.37,1.59-2.11,2.43c0.21,0.07,0.37,0.18,0.52,0.17c2.38-0.15,4.4-1.06,5.91-2.94
		c1.61-2,1.99-4.4,1.99-6.84c0.03-22.46,0.02-44.91,0.02-67.37c0-0.47-0.03-0.95,0-1.42c0.03-0.51-0.2-0.68-0.68-0.67
		c-0.83,0.02-1.65,0-2.48,0c-1.18,0-1.18,0-1.18,1.22c0,16.04,0,32.09,0,48.13c0,6.73,0.07,13.47-0.04,20.2
		C94.07,168.56,93.66,171.06,92.17,173.16z"/>
	<path class="st1" d="M98.75,80.83c0.4,0.33,0.74,0.49,1.16,0.1c1.37-1.26,2.3-2.68,2.29-4.68c-0.03-17.05-0.02-34.1-0.02-51.15
		c0-0.38,0.02-0.77,0-1.15c-0.07-1.11-0.64-1.88-1.61-2.21c-2.28-0.78-3.99,0.47-3.99,2.92c0,8.69,0,17.38,0,26.06c0,0,0,0,0,0
		c0,8.36,0.05,16.73-0.03,25.09C96.53,77.91,97.19,79.51,98.75,80.83z"/>
	<path class="st1" d="M110.33,86.05c0.47,0.41,0.95,0.58,1.51,0.19c1.98-1.37,4.02-2.68,5.93-4.15c1.01-0.79,1.52-1.94,1.5-3.34
		c-0.07-3.22-0.02-6.44-0.02-9.65c0-2.63,0-2.63-2.61-2.28c-0.67,0.09-0.92,0.27-0.59,1.03c1.26,2.89,0.02,5.93-2.79,7.03
		c-3.4,1.32-7.23-1.59-6.97-5.28c0.02-0.35,0.04-0.69,0.07-1.15c-2.35,0.98-2.64,1.04-2.71,3.34c-0.04,1.48,0.04,2.95-0.03,4.43
		c-0.05,0.96-0.32,1.91-0.39,2.87c-0.03,0.37,0.11,0.89,0.36,1.12C105.81,82.18,108.08,84.1,110.33,86.05z"/>
	<path class="st1" d="M93.57,68.77c-0.29-0.1-0.6-0.18-0.89-0.26c0,0.33,0,0.65,0.01,0.98c0,0.15,0.04,0.29,0.04,0.44
		c0.05,2.61-2.07,4.93-4.68,5.27c-2.08,0.27-5.23-1.74-5.53-4.27c-0.12-1.06-0.02-2.04,0.46-3c0.37-0.74,0.2-1.02-0.54-1.09
		c-0.62-0.05-1.23-0.07-1.85-0.13c-0.63-0.06-0.9,0.17-0.88,0.85c0.01,0.49,0.01,0.98,0.02,1.46c0.01,1.46,0,2.93-0.01,4.39
		c0,1.8,0.03,3.61-0.01,5.41c-0.03,1.24,0.36,2.32,1.33,3.05c1.97,1.5,3.99,2.91,6.03,4.31c0.26,0.18,0.88,0.18,1.1-0.01
		c2.37-1.95,4.68-3.96,7.02-5.94c0.4-0.34,0.55-0.67,0.4-1.23c-0.23-0.87-0.41-1.78-0.45-2.68c-0.07-1.68-0.1-3.37,0.01-5.05
		C95.24,69.97,94.75,69.18,93.57,68.77z"/>
	<path class="st1" d="M124.74,149.82c0.74-0.07,1.33-0.43,1.52-1.26c0.06-0.25,0.24-0.47,0.48-0.9c0.48,1.05,0.58,2.21,1.87,2.17
		c1.21-0.04,1.4-1.2,2.04-2.21c0.16,0.54,0.24,0.8,0.32,1.07c0.22,0.74,0.75,1.18,1.5,1.14c0.72-0.04,1.29-0.38,1.38-1.23
		c0.03-0.23,0.3-0.44,0.46-0.66c0.17,0.2,0.41,0.38,0.48,0.61c0.24,0.75,0.64,1.28,1.47,1.29c0.8,0.01,1.19-0.5,1.44-1.21
		c0.09-0.27,0.35-0.47,0.53-0.71c0.16,0.25,0.37,0.48,0.47,0.75c0.27,0.7,0.71,1.2,1.49,1.16c0.74-0.04,1.24-0.45,1.43-1.22
		c0.06-0.25,0.28-0.47,0.42-0.7c0.18,0.23,0.48,0.44,0.53,0.7c0.15,0.82,0.72,1.17,1.43,1.21c0.75,0.04,1.25-0.4,1.44-1.18
		c0.07-0.28,0.26-0.52,0.48-0.97c0.25,0.44,0.47,0.66,0.52,0.92c0.16,0.83,0.68,1.24,1.48,1.23c0.77-0.01,1.21-0.48,1.41-1.23
		c0.07-0.26,0.28-0.49,0.43-0.74c0.08-0.01,0.15-0.01,0.23-0.02c0.19,1.08,0.63,1.95,1.8,1.98c1.26,0.04,1.31-1.22,1.8-1.99
		c0.09,0.02,0.17,0.04,0.26,0.07c0.07,0.27,0.06,0.63,0.23,0.79c0.44,0.42,0.94,1.01,1.46,1.06c0.46,0.04,1.32-0.47,1.42-0.88
		c0.3-1.27,0.36-2.61,0.44-3.92c0.03-0.52-0.23-0.72-0.8-0.45c-0.84,0.41-1.67,0.43-2.49-0.19c-0.2-0.15-0.71-0.09-0.97,0.06
		c-0.9,0.52-1.76,0.68-2.64,0.04c-0.45-0.32-0.84-0.34-1.29-0.02c-0.88,0.62-1.77,0.54-2.62-0.06c-0.44-0.31-0.84-0.32-1.29,0.01
		c-0.89,0.64-1.76,0.66-2.68-0.01c-0.23-0.17-0.78-0.19-0.99-0.03c-0.94,0.74-1.87,0.64-2.78,0.07c-0.51-0.32-0.88-0.28-1.36,0.03
		c-0.79,0.52-1.64,0.66-2.46,0.03c-0.47-0.36-0.9-0.38-1.37-0.01c-0.82,0.63-1.66,0.51-2.46-0.01c-0.46-0.3-0.83-0.32-1.29-0.01
		c-0.86,0.58-1.73,0.56-2.63,0c-0.28-0.17-0.84-0.2-1.09-0.03c-0.83,0.56-1.62,0.55-2.5,0.16c-0.16-0.07-0.67,0.18-0.67,0.26
		c0.07,1.31,0.11,2.64,0.33,3.93C123.43,149.38,123.99,149.9,124.74,149.82z"/>
	<path class="st1" d="M123.64,137.57c0.19,0.37,0.93,0.81,1.24,0.7c0.54-0.19,0.94-0.77,1.38-1.2c0.08-0.08,0.15-0.18,0.21-0.27
		c0.06-0.1,0.12-0.2,0.19-0.3l0,0c0.04,0.05,0.08,0.09,0.13,0.13c0.02,0.02,0.05,0.04,0.07,0.07c0.11,0.11,0.22,0.22,0.24,0.35
		c0.14,0.86,0.83,1.32,1.48,1.25c0.55-0.06,1.04-0.72,1.53-1.15c0.19-0.17,0.29-0.44,0.44-0.66c0.14,0.23,0.3,0.44,0.4,0.68
		c0.28,0.69,0.76,1.18,1.53,1.12c0.72-0.06,1.27-0.4,1.38-1.24c0.02-0.2,0.29-0.37,0.44-0.55c0.18,0.17,0.46,0.31,0.51,0.51
		c0.22,0.77,0.68,1.25,1.48,1.29c0.83,0.03,1.15-0.57,1.43-1.22c0.03-0.08,0.09-0.15,0.15-0.22c0.04-0.05,0.08-0.09,0.13-0.14
		c0.02-0.02,0.04-0.04,0.07-0.07c0.04-0.04,0.09-0.09,0.13-0.14c0,0,0,0,0.01,0.01c0.06,0.07,0.14,0.14,0.21,0.21
		c0.05,0.05,0.1,0.1,0.14,0.15c0.06,0.08,0.12,0.15,0.14,0.24c0.21,0.75,0.72,1.2,1.44,1.23c0.75,0.02,1.18-0.55,1.48-1.21
		c0.05-0.12,0.13-0.23,0.21-0.33c0.08-0.11,0.17-0.21,0.25-0.31v0c0.03,0.04,0.07,0.08,0.1,0.12c0.04,0.04,0.07,0.08,0.11,0.11
		c0.12,0.13,0.23,0.26,0.29,0.41c0.25,0.71,0.71,1.21,1.46,1.2c0.74-0.01,1.19-0.53,1.47-1.22c0.09-0.22,0.29-0.41,0.44-0.61
		c0.17,0.21,0.43,0.39,0.5,0.62c0.21,0.71,0.64,1.11,1.37,1.17c0.77,0.06,1.17-0.42,1.47-1.04c0.03-0.06,0.07-0.12,0.11-0.18
		c0.08-0.12,0.17-0.23,0.27-0.34c0.05-0.06,0.09-0.11,0.13-0.17h0c0.04,0.06,0.07,0.11,0.11,0.17c0.11,0.18,0.21,0.36,0.36,0.49
		c0.47,0.41,0.99,1.1,1.46,1.07c0.52-0.03,1.02-0.71,1.5-1.14c0.17-0.15,0.27-0.39,0.4-0.59c0.14,0.18,0.32,0.34,0.43,0.54
		c0.33,0.61,0.68,1.18,1.49,1.2c0.86,0.02,1.42-0.55,1.55-1.22c0.27-1.36,0.31-2.76,0.45-4.15c-0.11-0.05-0.23-0.09-0.34-0.14
		c-1.15,0.59-2.25,0.68-3.32-0.14c-0.13-0.1-0.54,0.07-0.78,0.2c-0.86,0.48-1.67,0.59-2.59,0.08c-0.34-0.19-0.95-0.21-1.3-0.04
		c-0.97,0.5-1.84,0.42-2.78-0.05c-0.28-0.14-0.78-0.17-1.03-0.02c-0.94,0.58-1.79,0.53-2.74,0.03c-0.32-0.16-0.87-0.15-1.19,0.02
		c-0.96,0.52-1.82,0.44-2.76-0.03c-0.29-0.15-0.81-0.14-1.09,0.02c-0.88,0.5-1.74,0.52-2.59,0.03c-0.46-0.26-0.84-0.32-1.3-0.03
		c-0.88,0.54-1.75,0.51-2.67,0c-0.27-0.15-0.69-0.07-1.03-0.03c-0.68,0.09-1.43,0.48-2.01,0.29c-0.92-0.3-1.69-0.61-2.6,0.01
		c-0.28,0.19-0.82,0.09-1.22,0.02c-1.26-0.22-1.25-0.23-1.25,1.1c0,0.32-0.06,0.66,0.01,0.97
		C123.14,136.04,123.27,136.87,123.64,137.57z"/>
	<path class="st1" d="M157.31,149.93c-1.28,0.84-2.4,0.79-3.49-0.04c-0.11-0.09-0.49,0.09-0.69,0.22c-0.91,0.6-1.84,0.66-2.73,0.02
		c-0.45-0.32-0.81-0.26-1.21,0.01c-0.89,0.6-1.77,0.58-2.64-0.02c-0.43-0.3-0.8-0.3-1.28,0.02c-0.88,0.6-1.79,0.64-2.7-0.08
		c-0.21-0.16-0.75-0.15-0.99,0.01c-0.95,0.62-1.83,0.66-2.81,0.06c-0.29-0.18-0.88-0.17-1.18,0.01c-0.95,0.55-1.8,0.58-2.73-0.03
		c-0.25-0.16-0.78-0.19-1.02-0.03c-0.99,0.69-1.91,0.61-2.89,0c-0.21-0.13-0.66-0.15-0.86-0.02c-0.97,0.69-1.91,0.64-2.9,0.05
		c-0.21-0.13-0.59-0.27-0.72-0.18c-0.98,0.75-2.01,0.68-3.1,0.36c-0.12-0.03-0.27,0.05-0.45,0.09c0,0.95-0.08,1.87,0.03,2.77
		c0.07,0.62,0.25,1.32,0.63,1.79c0.85,1.04,2.1,0.71,2.6-0.58c0.09-0.24,0.33-0.43,0.49-0.64c0.14,0.22,0.28,0.44,0.43,0.65
		c0.25,0.34,0.45,0.79,0.78,0.97c0.94,0.51,1.75,0.05,2.24-1.15c0.04-0.09,0.11-0.17,0.18-0.25c0.06-0.06,0.12-0.11,0.17-0.17
		c0.02-0.02,0.04-0.04,0.05-0.06l0,0c0.02,0.03,0.05,0.06,0.07,0.1c0.03,0.03,0.05,0.06,0.08,0.1c0.02,0.02,0.03,0.04,0.05,0.06
		c0.03,0.04,0.06,0.09,0.09,0.13c0.03,0.04,0.05,0.09,0.06,0.14c0.22,0.76,0.65,1.26,1.48,1.29c0.85,0.03,1.27-0.45,1.46-1.25
		c0.05-0.21,0.31-0.37,0.47-0.56c0.17,0.18,0.43,0.33,0.49,0.54c0.21,0.78,0.62,1.24,1.47,1.27c0.91,0.04,1.18-0.6,1.46-1.27
		c0.04-0.11,0.12-0.2,0.21-0.28c0.07-0.07,0.14-0.13,0.2-0.19c0.02-0.02,0.04-0.04,0.06-0.07v0c0.04,0.05,0.09,0.1,0.13,0.15
		c0.05,0.05,0.1,0.1,0.14,0.14c0.09,0.1,0.17,0.2,0.21,0.31c0.36,1.03,1.08,1.55,1.92,1.13c0.43-0.22,0.66-0.82,1-1.24
		c0.11-0.14,0.26-0.26,0.4-0.37c0.05-0.04,0.09-0.08,0.14-0.12c0.04,0.04,0.08,0.08,0.12,0.13c0.13,0.13,0.27,0.25,0.29,0.39
		c0.16,0.86,0.64,1.29,1.52,1.29c0.88,0,1.22-0.56,1.42-1.31c0.04-0.17,0.2-0.31,0.32-0.45c0.02-0.02,0.03-0.04,0.05-0.06
		c0.02,0.02,0.05,0.04,0.07,0.06c0.08,0.06,0.17,0.11,0.25,0.17c0.11,0.08,0.19,0.15,0.21,0.25c0.17,0.85,0.64,1.31,1.5,1.34
		c0.89,0.04,1.22-0.54,1.45-1.28c0.03-0.1,0.11-0.19,0.21-0.28c0.09-0.08,0.2-0.16,0.29-0.25c0.02,0.02,0.03,0.04,0.05,0.07
		c0.12,0.15,0.26,0.3,0.3,0.47c0.21,0.79,0.72,1.21,1.51,1.26c0.8,0.05,1.22-0.44,1.48-1.15c0.1-0.27,0.33-0.49,0.63-0.93
		c0.16,0.54,0.15,0.87,0.31,1.02c0.4,0.39,0.83,0.9,1.33,1c0.41,0.08,1.14-0.22,1.35-0.58C157.7,153.43,157.45,151.78,157.31,149.93
		z"/>
	<path class="st1" d="M41.43,136.99c0.08,0.72,0.67,1.33,1.39,1.25c0.55-0.06,1.08-0.58,1.55-0.96c0.21-0.17,0.28-0.52,0.47-0.89
		c0.66,0.79,0.75,1.93,1.93,1.92c1.2-0.01,1.4-1.07,1.93-1.89c0.71,0.6,0.64,1.91,1.89,1.9c1.25,0,1.3-1.26,1.98-1.91
		c0.71,0.65,0.6,1.97,1.92,1.91c1.2-0.06,1.32-1.25,2.03-1.96c0.51,0.88,0.67,1.93,1.85,1.95c1.23,0.02,1.33-1.14,1.87-1.93
		c0.7,0.73,0.83,1.89,2.01,1.94c1.26,0.05,1.16-1.36,1.95-1.88c0.57,0.77,0.64,1.93,1.86,1.87c1.14-0.06,1.41-1.09,1.95-1.98
		c0.56,0.89,0.77,1.97,1.96,1.98c1.2,0.01,1.32-1.15,1.97-1.99c0.15,0.33,0.22,0.45,0.26,0.59c0.25,0.74,0.61,1.41,1.49,1.39
		c0.86-0.02,1.48-0.53,1.59-1.39c0.14-1.16,0.18-2.34,0.2-3.51c0.01-0.53-0.4-0.5-0.77-0.33c-0.82,0.36-1.57,0.25-2.35-0.21
		c-0.26-0.15-0.75-0.14-1.02,0.01c-0.94,0.53-1.81,0.53-2.76,0.01c-0.29-0.16-0.8-0.14-1.1,0.01c-0.95,0.49-1.83,0.45-2.78-0.01
		c-0.3-0.14-0.82-0.13-1.1,0.03c-0.89,0.52-1.75,0.54-2.59,0.02c-0.53-0.33-0.94-0.3-1.45,0.03c-0.82,0.52-1.65,0.4-2.5-0.03
		c-0.33-0.16-0.88-0.21-1.17-0.04c-0.95,0.54-1.8,0.54-2.75-0.01c-0.28-0.16-0.82-0.16-1.1,0c-0.94,0.54-1.8,0.52-2.74,0.02
		c-0.32-0.17-0.87-0.16-1.18,0.01c-0.92,0.48-1.76,0.54-2.66-0.03c-0.24-0.15-0.72-0.28-0.88-0.16c-1.01,0.81-2.07,0.55-3.37,0.16
		C41.27,134.32,41.27,135.66,41.43,136.99z"/>
	<path class="st1" d="M42.85,149.83c0.79,0.07,1.22-0.48,1.55-1.11c0.15-0.28,0.31-0.56,0.56-1.02c0.44,1.06,0.6,2.14,1.83,2.14
		c1.24,0,1.42-1.13,1.97-2.11c0.19,0.38,0.34,0.61,0.43,0.86c0.24,0.69,0.59,1.25,1.4,1.25c0.82-0.01,1.27-0.48,1.51-1.25
		c0.08-0.25,0.32-0.44,0.49-0.66c0.17,0.21,0.41,0.4,0.49,0.64c0.22,0.72,0.61,1.23,1.39,1.28c0.8,0.05,1.2-0.49,1.5-1.15
		c0.13-0.29,0.31-0.55,0.58-1.02c0.47,1.06,0.62,2.15,1.83,2.18c1.27,0.03,1.35-1.2,1.89-2.08c0.64,0.84,0.73,2.03,1.98,2.09
		c1.36,0.06,1.21-1.39,1.92-2.03c0.62,0.79,0.68,1.99,1.91,2.02c1.28,0.03,1.38-1.15,1.89-2.1c0.63,0.85,0.7,2.11,1.93,2.1
		c1.2-0.02,1.5-1.04,1.95-1.97c0.2,0.23,0.29,0.44,0.37,0.66c0.23,0.69,0.62,1.23,1.39,1.31c0.7,0.07,1.1-0.32,1.44-0.93
		c0.74-1.31,0.37-2.7,0.4-4.06c0-0.08-0.59-0.31-0.79-0.22c-0.79,0.36-1.5,0.29-2.15-0.24c-0.44-0.35-0.82-0.35-1.27-0.01
		c-0.83,0.63-1.66,0.56-2.56,0.07c-0.33-0.18-0.92-0.18-1.26-0.01c-0.89,0.45-1.68,0.58-2.58,0c-0.29-0.19-0.88-0.21-1.19-0.03
		c-0.95,0.54-1.79,0.57-2.74,0.01c-0.3-0.18-0.91-0.19-1.2,0c-0.92,0.59-1.73,0.51-2.63-0.04c-0.28-0.17-0.86-0.23-1.1-0.06
		c-0.98,0.7-1.87,0.66-2.87,0.05c-0.27-0.17-0.84-0.14-1.12,0.04c-0.91,0.61-1.74,0.51-2.66,0.03c-0.32-0.17-0.89-0.19-1.19-0.01
		c-0.96,0.58-1.81,0.51-2.74-0.05c-0.27-0.16-0.81-0.18-1.04-0.02c-0.95,0.69-1.86,0.59-2.88-0.02c-0.11,0.24-0.25,0.4-0.24,0.55
		c0.04,1.18,0.07,2.35,0.17,3.53C41.48,149.24,42.01,149.75,42.85,149.83z"/>
	<path class="st1" d="M42.72,155.54c0.81,0.08,1.32-0.41,1.68-1.07c0.14-0.26,0.26-0.53,0.5-1.02c0.54,0.99,0.57,2.12,1.85,2.12
		c1.26,0,1.38-1.08,2-2.06c0.22,0.48,0.36,0.78,0.49,1.08c0.27,0.63,0.71,0.99,1.43,0.96c0.7-0.03,1.14-0.35,1.36-1.04
		c0.09-0.28,0.34-0.51,0.51-0.76c0.19,0.23,0.45,0.43,0.54,0.7c0.25,0.68,0.63,1.1,1.41,1.12c0.78,0.02,1.16-0.43,1.45-1.07
		c0.12-0.27,0.33-0.5,0.5-0.76c0.17,0.25,0.34,0.49,0.5,0.74c0.05,0.07,0.08,0.16,0.11,0.24c0.24,0.67,0.77,0.84,1.41,0.82
		c0.61-0.02,1.08-0.24,1.28-0.89c0.1-0.34,0.27-0.66,0.45-1.07c0.82,0.68,0.77,1.96,2.1,1.99c1.38,0.04,1.1-1.43,1.9-1.91
		c0.68,0.66,0.57,1.93,1.91,1.9c1.3-0.03,1.28-1.27,1.93-1.96c0.6,0.8,0.63,1.96,1.91,1.96c1.26-0.01,1.25-1.32,2-1.94
		c0.12,0.23,0.22,0.35,0.25,0.48c0.16,0.82,0.65,1.33,1.46,1.44c0.92,0.13,1.43-0.53,1.58-1.25c0.21-1.05,0.18-2.16,0.27-3.24
		c0.06-0.74-0.32-0.92-0.92-0.67c-0.8,0.34-1.53,0.14-2.19-0.27c-0.43-0.27-0.72-0.28-1.11-0.01c-0.87,0.62-1.78,0.63-2.65,0.04
		c-0.48-0.33-0.83-0.26-1.27,0.03c-0.75,0.5-1.57,0.57-2.34,0.1c-0.58-0.35-1.09-0.35-1.65-0.03c-0.81,0.47-1.65,0.48-2.42-0.08
		c-0.49-0.36-0.88-0.32-1.35,0.02c-0.81,0.58-1.68,0.57-2.47-0.01c-0.45-0.33-0.82-0.41-1.27-0.07c-0.87,0.65-1.77,0.62-2.64,0.05
		c-0.47-0.31-0.84-0.28-1.29,0c-0.92,0.59-1.81,0.52-2.74-0.05c-0.26-0.16-0.8-0.13-1.07,0.04c-0.81,0.51-1.58,0.55-2.43,0.15
		c-0.31-0.15-0.79-0.39-0.98-0.27c-1.06,0.7-2.14,0.57-3.26,0.28c-0.04-0.01-0.1,0.05-0.31,0.16c0.09,1.21,0.15,2.5,0.31,3.77
		C41.54,154.93,41.96,155.47,42.72,155.54z"/>
	<path class="st1" d="M132.51,161.35c0.67-0.05,1.17-0.47,1.33-1.22c0.06-0.27,0.29-0.51,0.57-0.95c0.41,1.09,0.71,2.11,1.83,2.17
		c1.26,0.07,1.35-1.18,1.9-2.02c0.75,0.69,0.72,2.09,2.02,2.05c1.26-0.04,1.32-1.3,1.96-2.19c0.48,1,0.63,2.13,1.85,2.19
		c1.29,0.06,1.31-1.28,1.76-1.83c0.74,0.66,1.33,1.58,2.09,1.76c1.17,0.27,1.37-1.08,1.93-2c0.21,0.31,0.39,0.48,0.43,0.68
		c0.19,0.85,0.73,1.24,1.56,1.28c0.84,0.04,1.3-0.42,1.51-1.21c0.05-0.17,0.28-0.28,0.43-0.42c0.11,0.14,0.28,0.26,0.33,0.42
		c0.25,0.8,0.75,1.25,1.62,1.21c0.87-0.04,1.43-0.51,1.57-1.5c0.14-0.99,0.14-1.99,0.21-2.99c0.04-0.65-0.2-0.88-0.84-0.63
		c-0.88,0.34-1.7,0.3-2.51-0.29c-0.19-0.14-0.65-0.09-0.87,0.05c-0.96,0.6-1.86,0.58-2.83,0.03c-0.27-0.15-0.77-0.17-1.03-0.02
		c-0.97,0.58-1.87,0.52-2.85,0.04c-0.32-0.16-0.87-0.15-1.18,0.02c-0.89,0.5-1.69,0.5-2.59,0.02c-0.33-0.18-0.91-0.17-1.25,0.01
		c-0.9,0.46-1.75,0.55-2.58-0.02c-0.49-0.33-0.89-0.34-1.37,0c-0.81,0.56-1.68,0.58-2.48,0.01c-0.53-0.37-0.95-0.31-1.46,0.02
		c-0.79,0.51-1.58,0.46-2.42-0.01c-0.31-0.18-0.87-0.21-1.18-0.04c-0.92,0.5-1.76,0.54-2.67,0c-0.26-0.16-0.76-0.26-0.97-0.12
		c-0.87,0.57-1.71,0.71-2.67,0.27c-0.37-0.17-0.72-0.1-0.72,0.44c0,0.86-0.05,1.72,0.04,2.57c0.13,1.2,0.4,1.38,1.59,1.38
		c0.84,0,1.66-0.02,2.07-1.32c0.41,1.14,1.08,1.49,1.96,1.78c1.49,0.48,1.34-0.92,2.01-1.6c0.15,0.39,0.23,0.65,0.35,0.91
		C131.26,160.91,131.77,161.41,132.51,161.35z"/>
	<path class="st1" d="M124.73,143.92c0.91-0.01,1.35-0.39,1.55-1.23c0.05-0.2,0.31-0.36,0.47-0.54c0.12,0.19,0.32,0.36,0.35,0.57
		c0.11,0.76,0.48,1.16,1.28,1.18c0.81,0.02,1.46-0.14,1.7-1.05c0.02-0.06,0.04-0.12,0.08-0.17c0.03-0.05,0.08-0.11,0.12-0.16
		s0.09-0.1,0.14-0.15c0.05-0.05,0.09-0.1,0.13-0.16c0.03,0.06,0.07,0.11,0.1,0.17c0.11,0.17,0.22,0.34,0.27,0.52
		c0.26,0.83,0.84,1.04,1.65,1c0.74-0.03,1.13-0.33,1.27-1.07c0.02-0.13,0.11-0.24,0.21-0.35c0.07-0.08,0.16-0.17,0.23-0.25
		c0.02-0.03,0.05-0.06,0.07-0.09v0c0.04,0.06,0.08,0.11,0.12,0.16c0.13,0.16,0.27,0.32,0.31,0.5c0.16,0.82,0.7,1.14,1.44,1.17
		c0.73,0.03,1.21-0.35,1.44-1.05c0.1-0.3,0.27-0.58,0.52-1.1c0.25,0.45,0.44,0.65,0.48,0.88c0.14,0.77,0.48,1.19,1.35,1.2
		c0.87,0.01,1.41-0.24,1.59-1.15c0.04-0.22,0.28-0.4,0.43-0.6c0.17,0.2,0.45,0.39,0.49,0.62c0.14,0.77,0.55,1.08,1.33,1.12
		c0.83,0.04,1.36-0.18,1.55-1.06c0.05-0.24,0.31-0.43,0.47-0.65c0.19,0.22,0.5,0.43,0.54,0.68c0.16,0.87,0.8,1.08,1.49,1.1
		c0.69,0.02,1.23-0.3,1.37-1.1c0.04-0.24,0.31-0.45,0.47-0.67c0.16,0.21,0.38,0.4,0.46,0.63c0.23,0.77,0.74,1.08,1.51,1.09
		c0.75,0.01,1.22-0.28,1.43-1.03c0.08-0.29,0.34-0.52,0.63-0.95c0.4,1.53,1.02,2.14,1.9,2.07c0.89-0.07,1.54-0.8,1.63-2.02
		c0.08-1.13,0.02-2.28,0.02-3.56c-1.08,0.71-2.17,0.97-3.23,0.17c-0.38-0.29-0.63-0.26-1,0.01c-0.83,0.59-1.71,0.75-2.62,0.1
		c-0.49-0.35-0.97-0.28-1.47,0.06c-0.79,0.53-1.63,0.51-2.4-0.04c-0.5-0.36-0.94-0.39-1.43,0c-0.81,0.64-1.68,0.58-2.44-0.02
		c-0.53-0.42-0.92-0.35-1.39,0c-0.78,0.57-1.57,0.62-2.37,0.04c-0.51-0.37-1.01-0.37-1.55,0c-0.78,0.55-1.59,0.56-2.38-0.02
		c-0.49-0.36-0.97-0.37-1.46,0c-0.82,0.61-1.67,0.55-2.44-0.05c-0.5-0.39-0.85-0.34-1.32,0.03c-0.59,0.45-1.28,0.66-1.98,0.25
		c-0.78-0.45-1.44-0.59-2.31-0.04c-0.44,0.28-1.25,0.01-1.88-0.04c-0.21-0.02-0.42-0.11-0.84-0.23c0.13,1.44,0.18,2.73,0.39,3.99
		C123.34,143.38,123.77,143.93,124.73,143.92z"/>
	<path class="st1" d="M71.91,159.25c0.27,1.09,0.79,1.63,1.84,1.41c0.14-0.03,0.3-0.03,0.44,0.01c0.64,0.14,1.09-0.3,1.13-0.73
		c0.11-1.27,0.04-2.55,0.04-3.87c-0.16,0.01-0.28,0-0.38,0.04c-0.96,0.36-1.87,0.45-2.76-0.25c-0.17-0.13-0.63-0.04-0.86,0.1
		c-0.93,0.58-1.81,0.5-2.75,0.02c-0.31-0.16-0.84-0.21-1.11-0.04c-0.97,0.6-1.86,0.55-2.83,0c-0.26-0.15-0.76-0.13-1.01,0.03
		c-0.91,0.56-1.8,0.55-2.67,0.03c-0.54-0.32-0.94-0.31-1.45,0.04c-0.32,0.22-0.87,0.46-1.14,0.33c-1.29-0.63-2.53-0.12-3.78-0.12
		c-1.34,0-2.68-0.01-4.04,0.02c-1.21,0.02-2.45-0.55-3.68,0.13c-1.39-0.87-2.79-0.31-4.21-0.1c-0.42,0.06-0.89-0.15-1.34-0.24
		c-0.05,0.17-0.1,0.25-0.1,0.33c-0.01,0.83-0.08,1.66,0,2.48c0.06,0.6,0.21,1.24,0.51,1.75c0.61,1.06,1.76,1.03,2.41-0.01
		c0.26-0.4,0.46-0.84,0.8-1.48c0.34,1.17,0.68,2.23,1.82,2.23c1.15,0,1.47-1.15,1.95-2.13c0.54,0.95,0.69,2.14,1.9,2.16
		c1.26,0.02,1.29-1.33,1.95-2.16c0.2,0.35,0.39,0.55,0.44,0.79c0.18,0.77,0.63,1.3,1.41,1.38c0.86,0.09,1.16-0.68,1.59-1.22
		c0.05-0.06,0.01-0.19,0.06-0.25c0.08-0.11,0.21-0.28,0.28-0.26c0.15,0.03,0.3,0.15,0.39,0.27c0.13,0.19,0.19,0.43,0.32,0.62
		c0.35,0.55,0.86,1.05,1.5,0.79c0.49-0.21,0.86-0.76,1.23-1.2c0.17-0.2,0.22-0.51,0.33-0.77c0.08-0.01,0.15-0.01,0.23-0.02
		c0.4,0.89,0.69,1.97,1.84,2.04c1.3,0.08,1.29-1.32,1.95-2.1c0.61,0.82,0.65,2.09,1.91,2.09c1.26,0,1.44-1.18,1.96-2.25
		c0.5,0.99,0.53,2.23,1.89,1.94C70.86,160.83,71.58,160.33,71.91,159.25z"/>
	<path class="st1" d="M42.81,143.96c0.73,0.1,1.41-0.42,1.72-1.24c0.08-0.2,0.16-0.4,0.31-0.79c0.61,0.86,0.55,2.05,1.95,2
		c1.34-0.05,1.43-1.07,1.95-1.94c0.55,0.83,0.58,1.98,1.91,2c1.36,0.03,1.24-1.27,1.93-1.97c0.67,0.73,0.62,2,1.94,2
		c1.33,0,1.31-1.29,1.95-2.03c0.58,0.78,0.48,1.92,1.86,1.95c1.43,0.03,1.4-1.08,1.92-2.04c0.57,1,0.74,1.99,2.04,2.07
		c1.44,0.08,1.14-1.34,1.91-1.92c0.6,0.75,0.56,1.93,1.96,1.92c1.39-0.02,1.22-1.3,1.97-2.01c0.31,1.05,0.62,2,1.78,2.05
		c1.23,0.05,1.49-1.01,1.92-1.92c0.21,0.25,0.32,0.47,0.38,0.69c0.21,0.8,0.78,1.17,1.54,1.23c0.75,0.06,1.28-0.35,1.39-1.08
		c0.17-1.13,0.24-2.27,0.34-3.41c0.07-0.73-0.43-0.85-0.9-0.6c-0.78,0.41-1.38,0.15-2.07-0.19c-0.36-0.17-0.95-0.19-1.28,0
		c-0.89,0.51-1.69,0.48-2.58,0.02c-0.35-0.18-0.99-0.24-1.28-0.04c-0.93,0.65-1.75,0.4-2.65,0c-0.34-0.15-0.89-0.14-1.19,0.04
		c-0.9,0.53-1.68,0.47-2.57-0.02c-0.33-0.18-0.95-0.18-1.28,0.01c-0.9,0.52-1.67,0.54-2.57-0.01c-0.32-0.2-0.96-0.21-1.27-0.01
		c-0.93,0.59-1.73,0.52-2.64-0.01c-0.32-0.19-0.95-0.17-1.27,0.03c-0.86,0.52-1.66,0.57-2.47,0.01c-0.47-0.33-0.9-0.34-1.38-0.02
		c-0.88,0.58-1.74,0.49-2.65-0.03c-0.29-0.17-0.81-0.17-1.11-0.02c-0.74,0.36-1.41,0.68-2.25,0.25c-0.32-0.17-0.83-0.19-0.82,0.42
		c0.02,1.06,0.06,2.12,0.16,3.17C41.46,143.33,41.98,143.84,42.81,143.96z"/>
	<path class="st1" d="M126.63,127.62c-0.98,1.22-1.89,2.49-2.79,3.77c-0.37,0.52-0.14,0.97,0.48,1.09c0.91,0.17,1.62-0.29,1.96-1.23
		c0.08-0.21,0.29-0.36,0.44-0.54c0.14,0.18,0.39,0.35,0.39,0.53c0,0.97,0.66,1.18,1.4,1.24c0.81,0.06,1.33-0.38,1.58-1.14
		c0.08-0.23,0.19-0.45,0.29-0.68c0.08,0,0.17-0.01,0.25-0.01c0.13,0.33,0.28,0.65,0.39,0.98c0.27,0.77,0.9,0.88,1.57,0.85
		c0.6-0.03,1.04-0.31,1.23-0.95c0.08-0.3,0.31-0.55,0.48-0.82c0.19,0.26,0.44,0.5,0.55,0.79c0.27,0.71,0.74,1,1.49,1
		c0.76,0,1.09-0.45,1.35-1.06c0.11-0.27,0.33-0.49,0.5-0.73c0.18,0.24,0.43,0.45,0.52,0.72c0.24,0.7,0.63,1.07,1.41,1.08
		c0.79,0.01,1.18-0.42,1.44-1.07c0.11-0.27,0.25-0.53,0.48-0.99c0.25,0.41,0.44,0.61,0.49,0.84c0.18,0.81,0.65,1.2,1.49,1.22
		c0.84,0.02,1.21-0.45,1.44-1.17c0.03-0.08,0.07-0.16,0.12-0.24s0.11-0.15,0.17-0.22c0.04-0.05,0.08-0.1,0.11-0.15c0,0,0,0,0,0
		c0,0,0,0,0,0c0.07,0.07,0.15,0.14,0.23,0.21c0.03,0.02,0.05,0.05,0.08,0.07c0.05,0.05,0.1,0.1,0.14,0.15s0.07,0.1,0.09,0.16
		c0.25,0.77,0.68,1.18,1.53,1.19c0.84,0.01,1.1-0.51,1.35-1.15c0.09-0.24,0.35-0.42,0.53-0.62c0.14,0.21,0.34,0.39,0.4,0.62
		c0.22,0.83,0.78,1.1,1.57,1.15c0.82,0.05,1.14-0.45,1.39-1.11c0.1-0.27,0.31-0.5,0.49-0.78c0.18,0.16,0.21,0.17,0.22,0.2
		c0.04,0.08,0.09,0.16,0.1,0.24c0.13,0.93,0.67,1.41,1.6,1.44c0.81,0.02,1.47-0.48,1.61-1.46c0.19-1.3,0.2-2.62,0.3-4.13
		c-0.51,0.23-0.82,0.33-1.08,0.49c-0.66,0.42-1.31,0.36-1.89-0.1c-0.61-0.48-1.17-0.44-1.77-0.02c-0.71,0.5-1.43,0.5-2.13-0.03
		c-0.54-0.4-1.06-0.41-1.62-0.01c-0.79,0.56-1.59,0.55-2.35-0.1c-0.46-0.39-0.93-0.42-1.42,0c-0.75,0.64-1.54,0.69-2.34,0.08
		c-0.55-0.42-1.08-0.4-1.62,0.01c-0.76,0.57-1.52,0.56-2.27-0.01c-0.55-0.42-1.08-0.39-1.62,0.02c-0.76,0.57-1.52,0.54-2.28-0.02
		c-0.55-0.41-1.05-0.37-1.61,0.05c-0.68,0.51-1.42,0.55-2.12,0.01c-0.54-0.42-1.06-0.42-1.62-0.04c-0.65,0.43-1.31,0.58-2.07,0.15
		C127.43,127.24,126.82,127.39,126.63,127.62z"/>
	<path class="st1" d="M42.95,132.42c0.45,0,0.94-0.43,1.33-0.78c0.24-0.21,0.31-0.61,0.56-1.16c0.64,0.83,0.64,2.04,1.96,2.03
		c1.29-0.01,1.3-1.24,1.98-1.96c0.51,0.9,0.65,1.96,1.92,1.95c1.26-0.01,1.18-1.28,1.88-1.91c0.72,0.63,0.55,1.99,1.95,1.92
		c1.28-0.06,1.23-1.35,2.02-1.97c0.47,0.88,0.54,1.93,1.84,1.97c1.37,0.04,1.25-1.25,1.87-1.93c0.67,0.73,0.68,1.86,1.95,1.93
		c1.44,0.09,1.16-1.38,1.91-1.87c0.79,0.51,0.56,1.89,1.93,1.87c1.31-0.03,1.34-1.21,2-1.97c0.52,0.88,0.61,1.97,1.9,1.96
		c1.28,0,1.33-1.19,1.98-2.03c0.16,0.47,0.25,0.74,0.35,1.01c0.29,0.74,1.01,1.15,1.77,1c0.72-0.14,0.94-0.62,0.51-1.22
		c-0.87-1.22-1.75-2.45-2.7-3.62c-0.19-0.23-0.78-0.41-1-0.28c-0.79,0.45-1.48,0.34-2.15-0.16c-0.51-0.38-0.98-0.36-1.46,0
		c-0.76,0.56-1.49,0.59-2.27,0.03c-0.48-0.35-1.01-0.46-1.55-0.04c-0.76,0.59-1.54,0.64-2.35,0.04c-0.52-0.39-1.04-0.44-1.61,0.03
		c-0.69,0.57-1.45,0.58-2.19,0.01c-0.54-0.42-1.07-0.52-1.67-0.01c-0.69,0.58-1.45,0.61-2.18,0.02c-0.52-0.43-1.07-0.49-1.61-0.05
		c-0.82,0.65-1.57,0.55-2.43,0c-0.33-0.21-1.03-0.22-1.35-0.01c-0.9,0.59-1.66,0.54-2.53-0.01c-0.28-0.18-0.84-0.25-1.1-0.09
		c-0.84,0.51-1.63,0.81-2.55,0.22c-0.12-0.08-0.6,0.13-0.6,0.2c0.08,1.4,0.12,2.81,0.37,4.18C41.7,132.02,42.5,132.42,42.95,132.42z
		"/>
	<path class="st1" d="M42.83,126.74c0.78,0.04,1.34-0.37,1.63-1.12c0.1-0.25,0.22-0.5,0.43-0.98c0.5,1.02,0.66,2.1,1.86,2.11
		c1.21,0.01,1.45-1.09,2.03-2.04c0.19,0.41,0.33,0.63,0.4,0.87c0.23,0.8,0.76,1.15,1.56,1.17c0.77,0.02,1.06-0.49,1.3-1.11
		c0.11-0.29,0.33-0.54,0.62-1c0.23,0.49,0.37,0.74,0.46,1c0.22,0.64,0.6,1.08,1.33,1.11c0.79,0.02,1.24-0.42,1.55-1.09
		c0.13-0.27,0.33-0.5,0.5-0.75c0.15,0.26,0.35,0.5,0.45,0.78c0.25,0.65,0.7,1.02,1.39,1.05c0.7,0.04,1.17-0.33,1.44-0.96
		c0.13-0.31,0.26-0.62,0.47-1.14c0.58,0.99,0.8,2.05,2.02,2.12c1.35,0.07,1.16-1.37,1.94-1.99c0.55,0.82,0.62,2,1.93,1.99
		c1.28-0.01,1.28-1.26,1.98-2.06c0.17,0.44,0.29,0.69,0.38,0.96c0.22,0.66,0.7,1.04,1.37,1.07c0.29,0.01,0.65-0.13,0.85-0.33
		c0.09-0.09-0.07-0.53-0.22-0.75c-0.83-1.18-1.66-2.37-2.57-3.5c-0.22-0.27-0.74-0.43-1.11-0.41c-0.87,0.04-1.7,0.12-2.37-0.62
		c-0.09-0.1-0.49-0.04-0.64,0.08c-1.03,0.79-2.08,0.78-3.13-0.01c-0.17-0.12-0.6-0.1-0.77,0.03c-0.99,0.76-2.06,0.75-3.05-0.02
		c-0.17-0.13-0.6-0.12-0.78,0c-0.96,0.7-1.93,0.81-2.84,0.14c-0.47-0.34-0.78-0.33-1.25,0.01c-0.88,0.65-2.01,0.6-2.76-0.11
		c-0.37-0.35-0.56-0.34-0.94-0.01c-0.91,0.79-2.13,0.72-3.05-0.03c-0.16-0.13-0.61-0.12-0.76,0.01c-0.64,0.59-1.35,0.64-2.13,0.48
		c-0.34-0.07-0.67-0.17-1.21-0.3c0.1,1.43,0.14,2.75,0.31,4.05C41.54,126.19,42.06,126.7,42.83,126.74z"/>
	<path class="st1" d="M128.9,126.69c0.7-0.14,1.08-0.66,1.26-1.34c0.03-0.1,0.11-0.19,0.21-0.28c0.06-0.05,0.11-0.1,0.16-0.16l0,0
		c0.02,0.02,0.03,0.03,0.05,0.05c0.04,0.03,0.08,0.07,0.12,0.1c0.1,0.09,0.19,0.17,0.2,0.27c0.09,0.93,0.66,1.37,1.52,1.41
		c0.9,0.04,1.3-0.51,1.46-1.35c0.04-0.19,0.34-0.33,0.53-0.5c0.14,0.16,0.37,0.32,0.39,0.49c0.09,0.89,0.61,1.32,1.45,1.37
		c0.87,0.05,1.23-0.51,1.47-1.26c0.07-0.23,0.35-0.4,0.54-0.6c0.15,0.22,0.37,0.41,0.43,0.65c0.18,0.72,0.59,1.18,1.33,1.2
		c0.77,0.02,1.37-0.27,1.6-1.11c0.07-0.26,0.31-0.48,0.47-0.73c0.16,0.22,0.4,0.42,0.47,0.67c0.22,0.74,0.65,1.17,1.45,1.18
		c0.81,0.01,1.22-0.44,1.45-1.17c0.08-0.25,0.34-0.45,0.51-0.67c0.16,0.22,0.39,0.41,0.46,0.65c0.23,0.74,0.66,1.18,1.45,1.18
		c0.75,0.01,1.21-0.36,1.42-1.08c0.09-0.29,0.29-0.55,0.43-0.83c0.1,0.03,0.19,0.06,0.29,0.09c0.08,0.25,0.13,0.5,0.23,0.74
		c0.27,0.66,0.75,1.07,1.48,1.07c0.73,0,1.19-0.4,1.46-1.08c0.1-0.26,0.32-0.48,0.48-0.72c0.14,0.24,0.23,0.52,0.42,0.71
		c0.39,0.39,0.8,0.97,1.27,1.04c0.49,0.07,1.33-0.24,1.52-0.63c0.72-1.45,0.62-3.04,0.46-4.66c-0.23,0.04-0.35,0.04-0.45,0.08
		c-1.01,0.41-1.97,0.56-2.87-0.29c-0.12-0.11-0.5,0.02-0.74,0.1c-0.3,0.1-0.56,0.31-0.86,0.41c-1.04,0.35-1.88-0.13-2.66-0.72
		c-1.32,1.23-2.59,0.99-3.81-0.01c-1.53,1.14-2.11,1.13-3.9-0.02c-1.22,0.99-2.14,1.16-3.2,0.44c-0.48-0.32-0.79-0.31-1.25-0.01
		c-0.94,0.61-2.1,0.61-2.78-0.1c-0.41-0.44-0.71-0.26-0.94-0.01c-0.58,0.59-1.24,0.52-1.96,0.49c-0.44-0.02-1.06,0.11-1.31,0.42
		c-0.9,1.09-1.7,2.27-2.49,3.44c-0.15,0.23-0.25,0.75-0.13,0.85C128.18,126.65,128.6,126.75,128.9,126.69z"/>
	<path class="st1" d="M123.04,65.24c0.89,2.07,1.82,4.13,2.68,6.21c1.51,3.62,2.99,7.25,4.47,10.88c1.02,2.48,2.01,4.98,3.05,7.45
		c0.13,0.31,0.48,0.72,0.76,0.74c1.13,0.08,2.28,0.04,3.59,0.04c-0.24-0.66-0.41-1.21-0.64-1.75c-1.02-2.41-2.08-4.81-3.08-7.24
		c-1.27-3.08-2.48-6.18-3.74-9.26c-1.24-3.02-2.51-6.04-3.76-9.05c-0.84-2.01-1.66-4.03-2.51-6.04c-0.18-0.42-0.45-0.8-0.68-1.19
		c-0.08,0.04-0.15,0.08-0.23,0.11c0,2.89,0,5.78,0,8.67C122.95,64.95,122.98,65.1,123.04,65.24z"/>
	<path class="st1" d="M62.64,90.7c1.87,0.29,2.59-0.63,3.25-2.29c2.72-6.82,5.63-13.57,8.45-20.35c0.44-1.05,1.02-2.13,1.1-3.23
		c0.17-2.35,0.06-4.72,0.04-7.09c0-0.27-0.14-0.54-0.25-0.94c-1.67,2.6-14.33,33.27-14.12,34.17C61.63,90.87,62.16,90.63,62.64,90.7
		z"/>
	<path class="st1" d="M42.66,166.99c0.78,0.12,1.39-0.15,1.73-0.91c0.12-0.28,0.24-0.57,0.43-1.02c0.64,0.76,0.57,1.96,1.87,1.97
		c1.31,0.01,1.47-1.04,2.06-1.96c0.19,0.37,0.35,0.6,0.42,0.86c0.23,0.82,0.77,1.11,1.59,1.09c0.75-0.02,1.1-0.42,1.31-1.08
		c0.09-0.27,0.35-0.48,0.54-0.71c0.16,0.22,0.38,0.43,0.46,0.68c0.21,0.71,0.6,1.09,1.38,1.11c0.81,0.03,1.25-0.35,1.52-1.07
		c0.1-0.27,0.34-0.48,0.52-0.72c0.15,0.24,0.35,0.46,0.43,0.72c0.25,0.75,0.71,1.08,1.52,1.07c0.79-0.01,1.18-0.4,1.4-1.1
		c0.08-0.26,0.21-0.5,0.37-0.85c0.71,0.77,0.73,1.93,2.06,1.98c1.39,0.05,1.08-1.46,1.96-1.86c0.18,0.31,0.31,0.54,0.4,0.68
		c1.21-1.49,2.4-2.95,3.72-4.58c-0.38,0.08-0.59,0.06-0.69,0.16c-1.02,0.94-2.04,0.82-3.14,0.11c-0.2-0.13-0.66-0.03-0.91,0.12
		c-1.01,0.6-1.81,0.58-2.8-0.05c-0.24-0.15-0.74-0.17-0.97-0.02c-1.05,0.68-1.89,0.68-2.94,0c-0.22-0.14-0.68-0.17-0.89-0.04
		c-1.07,0.71-1.91,0.78-2.92,0.04c-0.38-0.28-0.63-0.32-1-0.04c-1.03,0.75-1.79,0.77-2.83,0.05c-0.41-0.29-0.66-0.29-1.07,0.02
		c-0.89,0.69-1.84,0.63-2.78-0.01c-0.21-0.14-0.67-0.3-0.76-0.2c-0.99,0.97-2.09,0.74-3.45,0.24c0.06,1.45,0.08,2.75,0.19,4.04
		C41.44,166.45,41.96,166.88,42.66,166.99z"/>
	<path class="st1" d="M146.43,165.85c0.14,0.79,0.66,1.14,1.44,1.16c0.8,0.01,1.26-0.37,1.46-1.14c0.06-0.22,0.27-0.4,0.41-0.59
		c0.16,0.2,0.4,0.39,0.48,0.62c0.24,0.76,0.77,1.07,1.52,1.1c0.76,0.03,1.2-0.34,1.43-1.06c0.08-0.25,0.31-0.46,0.46-0.69
		c0.14,0.24,0.24,0.54,0.44,0.72c0.41,0.38,0.85,0.91,1.33,0.97c0.49,0.06,1.32-0.25,1.5-0.63c0.67-1.44,0.6-3.01,0.43-4.7
		c-1.36,0.62-2.63,0.82-3.72-0.41c-1.26,1.35-2.58,1.03-3.87,0.14c-1.29,0.99-2.13,1.03-3.43,0.27c-0.22-0.13-0.67-0.1-0.88,0.04
		c-0.99,0.67-1.91,0.59-2.89-0.03c-0.22-0.14-0.69-0.17-0.89-0.03c-1.04,0.72-2.01,0.7-3.03-0.01c-0.19-0.13-0.63-0.13-0.82,0
		c-0.99,0.69-1.93,0.73-2.97,0.08c-0.25-0.15-0.71-0.09-1.02,0.03c-0.69,0.25-1.31,0.74-2.09,0.26c-0.39-0.24-0.81-0.42-1.37-0.7
		c0.23,1.11,1.25,1.43,1.73,2.15c0.52,0.79,1.04,1.59,1.52,2.32c0.29-0.17,0.56-0.36,0.86-0.47c0.06-0.02,0.31,0.27,0.34,0.44
		c0.13,0.86,0.58,1.29,1.47,1.32c0.89,0.03,1.25-0.48,1.47-1.24c0.06-0.22,0.29-0.39,0.44-0.59c0.17,0.17,0.46,0.32,0.5,0.53
		c0.17,0.79,0.53,1.26,1.41,1.29c0.92,0.03,1.32-0.46,1.53-1.27c0.02-0.08,0.07-0.14,0.13-0.21c0.04-0.04,0.09-0.09,0.14-0.13
		c0.04-0.03,0.07-0.06,0.11-0.09c0.04-0.03,0.07-0.06,0.1-0.1c0.02,0.02,0.04,0.05,0.06,0.07c0.06,0.07,0.13,0.14,0.2,0.21
		c0.09,0.09,0.16,0.19,0.19,0.3c0.32,1.04,0.95,1.53,1.87,1.13c0.54-0.23,0.9-0.9,1.35-1.37c-0.06-0.07-0.12-0.14-0.18-0.2
		C146.1,165.13,146.34,165.33,146.43,165.85z"/>
	<path class="st1" d="M154,115.52c-0.2-0.14-0.71-0.03-0.96,0.13c-0.91,0.58-1.78,0.56-2.65-0.02c-0.46-0.31-0.86-0.31-1.29,0.02
		c-0.78,0.59-1.63,0.57-2.39,0.04c-0.59-0.41-1.06-0.38-1.61,0c-0.77,0.53-1.55,0.5-2.3-0.04c-0.46-0.33-0.89-0.41-1.37-0.06
		c-0.84,0.61-1.69,0.62-2.54,0.01c-0.46-0.32-0.87-0.28-1.38,0.01c-0.48,0.27-1.12,0.46-1.66,0.4c-0.62-0.07-0.92,0.14-1.24,0.59
		c-0.84,1.17-1.71,2.32-2.56,3.49c-0.12,0.17-0.26,0.56-0.22,0.58c0.23,0.15,0.56,0.37,0.76,0.29c0.56-0.2,1.21-0.36,1.24-1.18
		c0.01-0.25,0.21-0.49,0.38-0.87c0.75,0.76,0.74,2.07,1.99,2.09c1.29,0.02,1.36-1.24,2.01-2.12c0.6,0.87,0.62,2.11,1.88,2.12
		c1.28,0.01,1.39-1.15,1.88-2.03c0.76,0.67,0.71,2,1.98,2.02c1.28,0.01,1.4-1.18,1.97-2.09c0.23,0.4,0.43,0.63,0.51,0.89
		c0.19,0.71,0.64,1.16,1.36,1.19c0.75,0.03,1.26-0.37,1.53-1.1c0.1-0.28,0.32-0.53,0.6-0.98c0.34,1.22,0.7,2.08,1.92,2.03
		c1.17-0.05,1.28-1.18,1.92-2.07c0.12,0.44,0.19,0.65,0.24,0.86c0.2,0.76,0.74,1.16,1.47,1.19c0.74,0.03,1.47-0.21,1.6-1.08
		c0.2-1.35,0.32-2.72,0.49-4.16c-0.41,0-0.55-0.04-0.64,0.01C155.91,116.21,154.97,116.18,154,115.52z"/>
	<path class="st1" d="M42.84,120.97c0.74,0.06,1.26-0.42,1.58-1.07c0.13-0.26,0.23-0.53,0.43-0.99c0.56,0.95,0.71,2.09,1.91,2.08
		c1.21-0.01,1.42-1.15,2.04-2.17c0.4,1.1,0.68,2.15,1.88,2.18c1.27,0.03,1.22-1.35,1.92-2.01c0.63,0.76,0.67,2.04,1.96,2.01
		c1.21-0.03,1.32-1.24,1.92-2.06c0.55,0.9,0.69,2.04,1.89,2.05c1.21,0.01,1.37-1.17,1.89-2.03c0.61,0.85,0.79,1.96,1.96,2.03
		c1.3,0.08,1.24-1.31,1.99-2c0.2,0.4,0.31,0.74,0.53,1c0.29,0.34,0.62,0.68,1,0.9c0.18,0.11,0.52-0.06,0.79-0.1
		c-0.05-0.24-0.03-0.53-0.15-0.71c-0.78-1.18-1.56-2.36-2.43-3.47c-0.26-0.33-0.81-0.49-1.25-0.62c-0.6-0.18-1.22-0.28-1.83-0.37
		c-0.37-0.05-0.85-0.17-1.11,0c-0.94,0.61-1.8,0.54-2.74,0.01c-0.28-0.16-0.81-0.16-1.09,0c-0.95,0.54-1.8,0.56-2.75,0
		c-0.3-0.18-0.89-0.18-1.18,0c-0.88,0.56-1.72,0.59-2.57,0.03c-0.48-0.32-0.86-0.35-1.36-0.01c-0.84,0.57-1.73,0.58-2.56-0.02
		c-0.46-0.33-0.79-0.2-1.28,0c-0.61,0.24-1.33,0.24-2.01,0.27c-0.29,0.01-0.59-0.16-1.09-0.31c0.11,1.5,0.18,2.81,0.33,4.12
		C41.53,120.48,42.11,120.92,42.84,120.97z"/>
	<path class="st1" d="M157.08,167.45c-0.09,0.01-0.19,0-0.26,0.05c-0.99,0.69-1.9,0.63-2.79-0.22c-0.14-0.13-0.67-0.07-0.86,0.09
		c-0.99,0.85-1.92,0.62-2.93,0.03c-0.26-0.15-0.8-0.09-1.07,0.08c-0.89,0.58-1.63,0.63-2.5,0c-0.44-0.32-0.84-0.46-1.36-0.08
		c-1.04,0.76-1.5,0.75-2.63-0.01c-0.46-0.31-0.84-0.31-1.28,0.04c-0.88,0.7-1.65,0.7-2.54,0c-0.44-0.35-0.82-0.37-1.27-0.03
		c-0.98,0.72-1.55,0.71-2.53,0.07c-0.24-0.16-0.55-0.22-0.86-0.34c-0.13,1.28-0.24,2.44-0.34,3.44c0.34,0.35,0.79,0.63,0.92,1.01
		c0.24,0.76,0.62,1.31,1.43,1.33c0.85,0.02,1.31-0.51,1.51-1.34c0.06-0.23,0.33-0.42,0.5-0.62c0.15,0.22,0.41,0.42,0.44,0.66
		c0.13,0.85,0.69,1.26,1.44,1.29c0.79,0.03,1.27-0.48,1.5-1.25c0.08-0.26,0.32-0.47,0.49-0.71c0.16,0.23,0.41,0.44,0.46,0.68
		c0.16,0.86,0.69,1.18,1.5,1.17c0.84-0.01,1.28-0.44,1.44-1.25c0.01-0.08,0.06-0.15,0.11-0.22c0.05-0.07,0.12-0.14,0.18-0.2
		c0.02-0.02,0.04-0.04,0.06-0.07c0.02-0.02,0.04-0.05,0.06-0.07c0.03,0.04,0.07,0.07,0.11,0.11c0.04,0.04,0.08,0.07,0.12,0.11
		c0.13,0.12,0.25,0.24,0.28,0.38c0.16,0.78,0.59,1.2,1.39,1.21c0.81,0.01,1.34-0.31,1.52-1.16c0.05-0.25,0.28-0.45,0.43-0.68
		c0.15,0.22,0.38,0.42,0.44,0.67c0.2,0.84,0.79,1.12,1.55,1.17c0.81,0.05,1.24-0.41,1.48-1.13c0.09-0.27,0.23-0.52,0.34-0.78
		c0.08,0.01,0.16,0.02,0.24,0.03c0.11,0.32,0.12,0.72,0.33,0.93c0.41,0.42,0.91,0.99,1.39,1.01c0.48,0.02,1.32-0.49,1.42-0.9
		c0.34-1.44,0.43-2.93,0.62-4.43C157.19,167.47,157.13,167.45,157.08,167.45z"/>
	<path class="st1" d="M44.24,172.03c0.21-0.37,0.37-0.77,0.67-1.42c0.47,1.08,0.61,2.24,1.81,2.29c1.29,0.06,1.44-1.18,2.03-2.11
		c0.24,0.47,0.35,0.89,0.62,1.15c0.4,0.39,0.91,0.93,1.36,0.91c0.43-0.02,0.87-0.63,1.25-1.04c0.23-0.26,0.35-0.62,0.59-1.06
		c0.67,0.85,0.66,2.16,1.94,2.14c1.24-0.02,1.39-1.22,1.94-2.17c0.63,0.88,0.61,2.17,1.88,2.16c1.24,0,1.43-1.11,1.93-2.21
		c0.35,0.65,0.55,1.07,0.79,1.46c0.59,0.95,1.75,1.02,2.34,0.15c0.37-0.54,0.74-1.07,1.08-1.62c0.07-0.12,0-0.33,0-0.5
		c-0.02-0.76-0.03-1.51-0.05-2.27c-0.01-0.22-0.07-0.43-0.11-0.65c-0.21,0.04-0.48,0.01-0.63,0.13c-0.91,0.7-1.82,0.78-2.75,0.05
		c-0.42-0.33-0.8-0.34-1.27,0.01c-0.95,0.71-1.51,0.63-2.59,0c-0.29-0.17-0.86-0.23-1.08-0.06c-1.02,0.79-1.93,0.63-2.93-0.03
		c-0.24-0.16-0.79-0.14-1.01,0.03c-0.94,0.74-1.79,0.68-2.76,0.04c-0.27-0.18-0.86-0.17-1.16,0.01c-1.13,0.66-1.6,0.69-2.67-0.01
		c-0.24-0.16-0.72-0.32-0.86-0.21c-1.01,0.85-2.03,1.02-3.25,0.17c0,1.66-0.51,3.28,0.42,4.77C42.4,173.21,43.6,173.13,44.24,172.03
		z"/>
	<path class="st1" d="M118.5,51.46c-1.47,0.74-2.94,1.53-4.3,2.46c-3.87,2.66-7.02,6.08-10,9.68c-0.53,0.64-0.7,1.33-0.46,2.25
		c0.24-0.15,0.39-0.23,0.53-0.32c1.43-0.93,2.78-2.01,4.3-2.75c2.74-1.33,5.8-1.47,8.76-1.91c0.97-0.14,1.82-0.53,1.89-1.17
		c0.26-2.42,0.54-4.85,0.72-7.28C120.03,51.14,119.65,50.88,118.5,51.46z"/>
	<path class="st1" d="M42.45,115.15c0.81,0.22,1.45-0.06,1.86-0.81c0.16-0.3,0.3-0.61,0.54-1.1c0.56,0.86,0.67,1.94,1.85,1.95
		c1.21,0.01,1.42-1.04,2.04-1.9c0.19,0.36,0.33,0.59,0.44,0.84c0.28,0.63,0.65,1.1,1.45,1.08c0.77-0.02,1.17-0.41,1.41-1.1
		c0.07-0.21,0.29-0.37,0.46-0.55c0.03-0.03,0.05-0.05,0.07-0.08v0c0.02,0.03,0.05,0.05,0.07,0.08c0.05,0.05,0.1,0.1,0.15,0.15
		c0.12,0.12,0.24,0.25,0.3,0.4c0.25,0.61,0.55,1.07,1.32,1.09c0.82,0.02,1.25-0.38,1.54-1.07c0.05-0.12,0.13-0.23,0.21-0.34
		c0.08-0.11,0.17-0.21,0.25-0.33l0,0c0.04,0.06,0.09,0.12,0.14,0.18c0.14,0.17,0.29,0.34,0.38,0.54c0.28,0.61,0.68,1,1.4,1.02
		c0.73,0.02,1.15-0.32,1.43-0.95c0.12-0.27,0.33-0.51,0.49-0.76c0.18,0.24,0.4,0.47,0.55,0.73c0.57,1.04,0.8,1.15,1.86,0.72
		c-1.06-1.47-2.08-2.94-3.18-4.35c-0.2-0.25-0.71-0.26-1.08-0.37c-0.44-0.13-0.95-0.14-1.31-0.38c-0.47-0.32-0.81-0.36-1.27-0.04
		c-0.86,0.6-1.77,0.64-2.63,0.01c-0.46-0.34-0.85-0.26-1.29,0.02c-0.88,0.58-1.75,0.5-2.66-0.01c-0.27-0.16-0.73-0.05-1.09,0.01
		c-0.59,0.09-1.22,0.45-1.75,0.32c-0.93-0.22-1.78-0.87-2.74-0.05c-0.14,0.12-0.5-0.05-0.69,0.04c-0.36,0.19-0.86,0.43-0.96,0.75
		c-0.26,0.89-0.36,1.83-0.49,2.75C41.43,114.39,41.71,114.95,42.45,115.15z"/>
	<path class="st1" d="M154.06,109.72c-0.28-0.06-0.66-0.1-0.86,0.04c-0.97,0.65-1.89,0.63-2.9,0.08c-0.27-0.15-0.75-0.17-1-0.03
		c-0.94,0.55-1.82,0.58-2.75,0.01c-0.46-0.28-0.86-0.3-1.37,0.07c-0.74,0.54-1.6,0.5-2.41,0.02c-0.18-0.1-0.37-0.35-0.51-0.31
		c-1.06,0.25-2.42,0.24-3.11,0.91c-1.31,1.26-2.25,2.92-3.41,4.5c1.2,0.32,1.49,0.13,1.99-1.03c0.09-0.21,0.31-0.37,0.48-0.55
		c0.16,0.17,0.43,0.33,0.47,0.53c0.16,0.78,0.59,1.2,1.38,1.25c0.84,0.05,1.29-0.41,1.55-1.17c0.08-0.23,0.33-0.41,0.51-0.61
		c0.16,0.19,0.4,0.36,0.45,0.58c0.18,0.77,0.61,1.17,1.41,1.2c0.83,0.03,1.2-0.45,1.47-1.15c0.09-0.22,0.34-0.38,0.52-0.56
		c0.16,0.18,0.4,0.33,0.46,0.53c0.21,0.7,0.59,1.15,1.35,1.19c0.79,0.04,1.25-0.38,1.53-1.09c0.09-0.24,0.33-0.42,0.5-0.63
		c0.14,0.2,0.33,0.37,0.42,0.59c0.29,0.68,0.73,1.12,1.53,1.11c0.75-0.01,1.19-0.41,1.44-1.09c0.06-0.17,0.19-0.31,0.31-0.46
		c0.04-0.05,0.08-0.1,0.11-0.15v0c0.03,0.05,0.07,0.09,0.11,0.14c0.08,0.09,0.16,0.18,0.22,0.28c0.03,0.05,0.06,0.1,0.08,0.15
		c0.29,0.75,0.82,1.18,1.6,1.14c0.84-0.04,1.44-0.55,1.41-1.4c-0.03-0.98-0.27-1.96-0.39-2.94c-0.06-0.49-0.34-0.57-0.78-0.64
		C155.25,110.14,154.67,109.86,154.06,109.72z"/>
	<path class="st1" d="M89.88,58.47c-2.82-3.01-6.13-5.32-9.88-7.01c-0.72-0.33-1.04-0.15-0.98,0.61c0.2,2.31,0.4,4.62,0.67,6.93
		c0.14,1.24,0.56,1.62,1.79,1.84c1.47,0.27,2.95,0.53,4.44,0.71c3.03,0.37,5.77,1.38,8.09,3.42c0.23,0.21,0.51,0.36,0.77,0.54
		c0.51-0.78,0.5-1.29-0.24-2.1C93.02,61.73,91.43,60.12,89.88,58.47z"/>
	<path class="st1" d="M156.96,173.2c-1.04,0.38-2.05,0.56-3.01-0.24c-0.12-0.1-0.48-0.07-0.63,0.04c-1.04,0.77-2.07,0.67-3.13,0.06
		c-0.2-0.12-0.6-0.14-0.78-0.02c-1.03,0.7-2.03,0.6-3.08,0.04c-0.25-0.13-0.66-0.12-0.9,0.03c-0.89,0.53-1.97,0.6-2.82-0.01
		c-0.42-0.31-0.69-0.25-1.09,0c-0.92,0.59-1.85,0.59-2.82,0c-0.24-0.15-0.73-0.14-0.98,0.01c-0.97,0.58-1.92,0.58-2.84,0
		c-0.43-0.27-0.72-0.29-1.1,0c-0.19,0.14-0.39,0.31-0.61,0.35c-1.32,0.26-1.75,1.54-2.75,2.16c0.04,0.15,0.04,0.14,0.08,0.29
		c0.35,0,0.7,0,1.05,0c4.73,0,9.46-0.04,14.19,0.03c1.19,0.02,2.43,0.19,3.54,0.58c2.21,0.79,3.62,2.44,4.22,4.76
		c0.13-0.08,0.22-0.11,0.27-0.17c1.15-1.45,2.3-2.91,3.44-4.37c0.09-0.11,0.17-0.26,0.17-0.4c0.01-1.05,0.01-2.11,0.01-3.2
		C157.18,173.18,157.06,173.17,156.96,173.2z"/>
	<path class="st1" d="M52.21,175.99c5.01-0.01,10.03,0.06,15.04,0.08c0.18,0,0.37-0.16,0.76-0.35c-1.28-0.67-1.71-1.93-2.99-2.39
		c-0.68-0.24-1.13-0.37-1.76,0c-0.78,0.46-1.56,0.27-2.36-0.11c-0.33-0.16-0.89-0.19-1.19-0.02c-0.89,0.52-1.75,0.55-2.58,0.01
		c-0.5-0.32-0.85-0.34-1.35-0.01c-0.83,0.55-1.76,0.56-2.58-0.02c-0.48-0.34-0.81-0.28-1.27,0c-0.87,0.55-1.76,0.52-2.68,0.01
		c-0.29-0.16-0.73-0.08-1.09-0.03c-0.65,0.09-1.38,0.5-1.92,0.31c-0.92-0.33-1.65-0.5-2.62-0.04c-0.63,0.3-1.52,0.06-2.4,0.06
		c0.07,1-0.32,2.21,0.44,3.31c0.96,1.4,1.91,2.81,2.88,4.21c0.09,0.12,0.33,0.28,0.4,0.24c0.14-0.08,0.25-0.27,0.31-0.44
		c0.15-0.35,0.21-0.74,0.39-1.07C47.08,177.17,49.34,175.99,52.21,175.99z"/>
	<path class="st1" d="M123.19,79.05c1.32,3.18,2.66,6.36,3.98,9.54c0.83,1.99,0.81,2,2.91,2c0.3,0,0.59,0,0.89,0
		c0.86-0.02,1.03-0.28,0.7-1.1c-0.41-1.01-0.83-2.02-1.24-3.02c-2.23-5.41-4.47-10.83-6.71-16.24c-0.1-0.25-0.33-0.44-0.64-0.86
		c-0.08,0.39-0.13,0.5-0.13,0.61c0,2.72-0.01,5.43,0.01,8.15C122.96,78.44,123.07,78.76,123.19,79.05z"/>
	<path class="st1" d="M75.49,77.96c0.01-2.42,0.01-4.85-0.01-7.27c0-0.26-0.07-0.53-0.11-0.79c-0.12-0.02-0.24-0.04-0.36-0.07
		c-2.8,6.81-5.61,13.62-8.41,20.43c0.07,0.11,0.15,0.22,0.22,0.33c0.72,0,1.45-0.06,2.17,0.01c1.06,0.11,1.68-0.16,2.11-1.28
		c1.33-3.53,2.82-7,4.24-10.5C75.45,78.55,75.49,78.24,75.49,77.96z"/>
	<path class="st1" d="M149.58,104.14c-0.56-0.41-0.98-0.33-1.51,0.02c-0.92,0.62-1.92,0.5-2.7-0.32c-0.26-0.27-0.39-0.66-0.59-0.99
		c-1.72,2.13-3.08,4-4.43,5.89c-0.14,0.2-0.14,0.49-0.22,0.77c1.43,0,1.26-1.41,2.05-2.09c0.16,0.36,0.34,0.6,0.37,0.86
		c0.12,0.81,0.69,1.24,1.37,1.27c0.73,0.03,1.32-0.41,1.53-1.22c0.07-0.26,0.3-0.49,0.45-0.73c0.17,0.24,0.43,0.45,0.51,0.71
		c0.23,0.73,0.68,1.25,1.43,1.24c0.67-0.01,1.21-0.4,1.41-1.13c0.09-0.32,0.27-0.61,0.52-1.13c0.21,0.46,0.33,0.63,0.37,0.82
		c0.19,0.82,0.69,1.36,1.53,1.33c0.82-0.03,1.46-0.41,1.58-1.37c0.03-0.21,0.23-0.4,0.32-0.53c0.48,0.64,0.84,1.25,1.32,1.74
		c0.18,0.19,0.62,0.12,0.95,0.17c0.04-0.35,0.22-0.75,0.1-1.04c-0.56-1.36-1.18-2.7-1.83-4.03c-0.23-0.48-0.59-0.91-1.06-1.62
		c-0.36,0.48-0.57,0.85-0.86,1.14C151.41,104.7,150.48,104.8,149.58,104.14z"/>
	<path class="st1" d="M44.2,108.78c0.2-0.16,0.23-0.53,0.36-0.79c0.08-0.16,0.2-0.31,0.38-0.58c0.49,0.92,0.49,2.06,1.85,2.08
		c1.41,0.01,1.31-1.29,2-2.1c0.45,0.96,0.68,2.11,1.84,2.16c1.25,0.06,1.25-1.31,2-2.19c0.23,0.47,0.38,0.8,0.56,1.12
		c0.17,0.29,0.34,0.64,0.6,0.83c0.85,0.61,1.66,0.19,2.28-1.12c0.12-0.24,0.29-0.46,0.37-0.59c0.46,0.66,0.82,1.24,1.24,1.76
		c0.11,0.13,0.41,0.1,0.63,0.14c-0.01-0.21,0.07-0.48-0.03-0.62c-1.21-1.7-2.45-3.39-3.69-5.07c-0.41-0.56-0.8-0.62-1.34-0.04
		c-0.9,0.98-1.64,1.07-2.75,0.38c-0.62-0.39-1.11-0.39-1.69,0.04c-0.81,0.59-1.6,0.46-2.35-0.15c-0.2-0.17-0.4-0.42-0.63-0.47
		c-0.24-0.05-0.67,0.01-0.75,0.17c-0.79,1.48-1.55,2.98-2.23,4.51c-0.16,0.35,0,0.83,0.01,1.26
		C43.32,109.27,43.81,109.08,44.2,108.78z"/>
	<path class="st1" d="M101.39,81.55c-0.83,1.16-0.95,2.38-0.36,3.68c0.82,1.82,2.23,3.1,4.02,3.81c3.1,1.22,6.26,2.26,9.4,3.37
		c0.35,0.12,2.47,1.13,2.83,1.23c0.04-0.09-1.68-1.1-1.65-1.19c-0.11-0.13-0.21-0.27-0.33-0.38c-1.8-1.56-3.59-3.12-5.4-4.67
		c-2.37-2.03-4.76-4.04-7.13-6.08C102.2,80.83,101.8,80.98,101.39,81.55z"/>
	<path class="st1" d="M83.03,92.48c0.04,0.07-1.44,0.91-1.39,0.98c0.14-0.01,1.82-0.75,1.95-0.79c1.65-0.51,3.33-0.97,4.95-1.57
		c1.85-0.68,3.68-1.43,5.48-2.25c1.47-0.67,2.66-1.71,3.48-3.16c0.8-1.42,0.86-2.79-0.12-4.14c-0.42-0.59-0.86-0.71-1.47-0.18
		c-3.34,2.9-6.71,5.77-10.06,8.65C84.9,90.83,83.97,91.66,83.03,92.48z"/>
	<path class="st1" d="M145.46,102.77c0.21,0.67,0.89,1.01,1.57,0.83c0.44-0.12,0.84-0.51,1.18-0.86c0.24-0.25,0.34-0.63,0.51-0.96
		c0.09,0.01,0.19,0.02,0.28,0.03c0.08,0.24,0.17,0.48,0.25,0.72c0.22,0.65,0.66,1.12,1.35,1.08c0.47-0.03,1.09-0.22,1.34-0.56
		c0.42-0.56,0.62-1.3,0.03-1.95c-0.93-1.02-1.87-2.04-2.81-3.06c-0.44-0.48-0.82-0.45-1.2,0.12c-0.73,1.07-1.55,2.09-2.23,3.19
		C145.48,101.74,145.34,102.36,145.46,102.77z"/>
	<path class="st1" d="M102.67,95.17c0.47-0.01,0.93-0.19,1.39-0.3c-0.26-0.48-0.49-0.97-0.78-1.43c-0.14-0.21-0.4-0.35-0.63-0.48
		c-1.22-0.66-2.52-1.09-3.9-0.92c-1.91,0.24-3.71,0.76-4.58,3.01c0.47,0.05,0.81,0.11,1.15,0.11
		C97.77,95.19,100.22,95.2,102.67,95.17z"/>
	<path class="st1" d="M46.56,103.01c0.45,0.33,1.09,0.58,1.64,0.55c0.34-0.02,0.65-0.61,0.97-0.96c0.2-0.22,0.37-0.46,0.56-0.69
		c0.12,0.21,0.27,0.4,0.36,0.62c0.34,0.8,1.09,1.24,1.91,1.08c0.76-0.14,1.08-0.64,1.17-1.53c-0.09-0.19-0.2-0.52-0.38-0.8
		c-0.71-1.05-1.42-2.09-2.19-3.1c-0.13-0.17-0.67-0.27-0.77-0.17c-1.16,1.24-2.31,2.5-3.37,3.83
		C46.27,102.08,46.34,102.85,46.56,103.01z"/>
	<path class="st1" d="M99.41,171c-1.24,1.65-2.49,3.31-3.7,4.93c2.44,0,5,0,7.56,0C101.54,174.51,100.13,172.93,99.41,171z"/>
	<path class="st1" d="M122.96,82.98c0,1.76,0,3.53,0,5.29c0,1.8,0,2.21,1.06,2.3c0.07,0.01,0.15,0.01,0.23,0.01
		c0.09,0,0.18,0.01,0.28,0.01c0.05,0,0.1,0,0.16,0c0.06,0,0.11,0,0.17,0c0.13,0,0.26,0,0.4,0c1.12,0,1.25-0.25,0.8-1.33
		c-0.76-1.82-1.48-3.66-2.25-5.48c-0.14-0.32-0.38-0.6-0.58-0.89v0C123.09,82.94,123.1,82.94,122.96,82.98z"/>
	<path class="st1" d="M72.8,90.59c0.59-0.01,1.18-0.03,1.77,0.01c0.69,0.05,0.95-0.23,0.94-0.92c-0.03-1.85-0.01-3.71-0.02-5.56
		c0-0.26-0.09-0.53-0.16-0.91c-0.22,0.18-0.35,0.24-0.39,0.32c-0.89,2.11-1.78,4.23-2.65,6.34C72.08,90.37,72.28,90.6,72.8,90.59z"
		/>
	<path class="st1" d="M71.81,59.74c1.75,0.32,2.75-0.44,3.35-2.9c-0.28,0.15-0.6,0.26-0.84,0.46c-0.22,0.18-0.33,0.49-0.53,0.7
		c-0.65,0.66-1.45,0.88-2.35,0.63c-0.7-0.2-1.2-0.65-1.31-1.4C70.1,57,70.23,56.67,70.4,56.5c0.08-0.08,0.45,0.08,0.66,0.19
		c0.3,0.16,0.53,0.48,0.84,0.56c0.54,0.15,0.99-0.02,1.12-0.67c0.18-0.87-0.16-1.56-0.9-1.77c-1.38-0.38-2.69,0.63-2.72,2.08
		C69.37,58.26,70.42,59.49,71.81,59.74z"/>
	<path class="st1" d="M128.61,68.77c0.43,0.26,0.95,0.37,1.44,0.55c1.41,0.01,2.18-0.81,2.93-1.8c0.78-1.03-0.35-3.11-1.48-3.34
		c-0.8-0.16-1.79,0.22-1.97,0.95c-0.1,0.43,0,1.1,0.28,1.39c0.34,0.35,0.93,0.37,1.4-0.15c0.22-0.24,0.7-0.24,1.06-0.36
		c0.01,0.41,0.09,0.84-0.01,1.22c-0.06,0.24-0.38,0.43-0.62,0.6c-0.79,0.56-1.59,0.43-2.42,0.05c-0.23-0.11-0.59,0.05-0.89,0.09
		C128.41,68.24,128.42,68.65,128.61,68.77z"/>
	<path class="st1" d="M90.22,67.78c-1.35-0.25-2.72-0.42-4.08-0.63c-0.91-0.14-1.46,0.33-1.81,1.08c-0.22,0.47-0.36,0.98-0.59,1.62
		c0.26-0.11,0.55-0.18,0.77-0.35c0.68-0.52,0.95-0.63,1.56-0.88c0.36-0.14,0.88-0.28,1.24-0.35c1.43-0.3,2.63,0.82,3.69,1.72
		C91.22,68.61,90.99,67.92,90.22,67.78z"/>
	<path class="st1" d="M112.99,67.16c-1.35,0.12-2.69,0.33-4.02,0.58c-0.92,0.18-1.37,1.14-1.03,2.3c2.28-2.28,4.56-2.48,6.82-0.12
		C115.28,68.49,114.33,67.04,112.99,67.16z"/>
	<circle class="st1" cx="33.67" cy="87.7" r="1.15"/>
	<circle class="st1" cx="165.08" cy="87.7" r="1.15"/>
	<circle class="st1" cx="165.08" cy="165.2" r="1.15"/>
	<path class="st1" d="M33.67,164.04c-0.24,0-0.45,0.07-0.64,0.19c-0.19,0.1-0.35,0.27-0.42,0.5c-0.06,0.14-0.09,0.29-0.09,0.46
		c0,0.64,0.52,1.15,1.15,1.15s1.15-0.52,1.15-1.15S34.3,164.04,33.67,164.04z"/>
	<path class="st1" d="M85.65,70.8c0.51-0.49,1.13-0.82,2.01-0.78c0.83,0.04,1.41,0.4,1.91,0.9c0.34,0.34,0.63,0.75,0.93,1.18
		c0.03,0.04,0.05,0.08,0.08,0.12c0.34-0.89,0.03-1.69-0.77-2.33c-1.25-1-2.87-1.06-4.2-0.17c-0.89,0.6-1.22,1.23-1.03,2.07
		c0.02,0.07,0.03,0.14,0.06,0.21C84.96,71.57,85.28,71.15,85.65,70.8z"/>
	<path class="st1" d="M87.49,73.82c1.09,0.02,1.61-0.27,1.62-0.91c0-0.79-0.65-1.46-1.45-1.48c-0.78-0.02-1.74,0.74-1.78,1.42
		C85.84,73.43,86.46,73.8,87.49,73.82z"/>
	<path class="st1" d="M111.48,70.01c0.73,0.05,1.26,0.33,1.71,0.75c0.43,0.39,0.78,0.9,1.15,1.42c0.02-0.09,0.03-0.19,0.04-0.28
		c0.15-1.37-0.86-2.52-2.35-2.78c-1.59-0.28-3.85,0.88-3.66,2.51C109.35,70.92,110.1,69.92,111.48,70.01z"/>
	<path class="st1" d="M109.65,72.83c-0.01,0.65,0.6,0.98,1.94,0.99c0.48-0.06,1.24,0.08,1.29-0.89c0.04-0.85-0.68-1.51-1.6-1.5
		C110.38,71.43,109.66,72.05,109.65,72.83z"/>
</g>
</svg>
